<mxfile host="app.diagrams.net" modified="2024-01-18T12:14:51.429Z" agent="Mozilla/5.0 (Windows NT 10.0; Win64; x64) AppleWebKit/537.36 (KHTML, like Gecko) Chrome/120.0.0.0 Safari/537.36 Edg/120.0.0.0" etag="7b5LSB20__lZaLbx0761" version="22.1.21" type="github">
  <diagram name="第 1 页" id="PB_x__azty778NMoJeEZ">
    <mxGraphModel dx="1306" dy="857" grid="1" gridSize="10" guides="1" tooltips="1" connect="1" arrows="1" fold="1" page="1" pageScale="1" pageWidth="827" pageHeight="1169" math="0" shadow="0">
      <root>
        <mxCell id="0" />
        <mxCell id="1" parent="0" />
        <mxCell id="XIqV0Pejdu-KuDgtfEbg-3" style="edgeStyle=orthogonalEdgeStyle;rounded=0;orthogonalLoop=1;jettySize=auto;html=1;exitX=1;exitY=0.5;exitDx=0;exitDy=0;entryX=0;entryY=0.5;entryDx=0;entryDy=0;" edge="1" parent="1" source="XIqV0Pejdu-KuDgtfEbg-1" target="XIqV0Pejdu-KuDgtfEbg-2">
          <mxGeometry relative="1" as="geometry" />
        </mxCell>
        <mxCell id="XIqV0Pejdu-KuDgtfEbg-1" value="功能测试" style="rounded=0;whiteSpace=wrap;html=1;fontSize=19;" vertex="1" parent="1">
          <mxGeometry x="170" y="270" width="120" height="60" as="geometry" />
        </mxCell>
        <mxCell id="XIqV0Pejdu-KuDgtfEbg-5" value="" style="edgeStyle=orthogonalEdgeStyle;rounded=0;orthogonalLoop=1;jettySize=auto;html=1;" edge="1" parent="1" source="XIqV0Pejdu-KuDgtfEbg-2" target="XIqV0Pejdu-KuDgtfEbg-4">
          <mxGeometry relative="1" as="geometry" />
        </mxCell>
        <mxCell id="XIqV0Pejdu-KuDgtfEbg-2" value="功能测试" style="rounded=0;whiteSpace=wrap;html=1;fontSize=19;" vertex="1" parent="1">
          <mxGeometry x="350" y="270" width="120" height="60" as="geometry" />
        </mxCell>
        <mxCell id="XIqV0Pejdu-KuDgtfEbg-4" value="功能测试" style="rounded=0;whiteSpace=wrap;html=1;fontSize=19;" vertex="1" parent="1">
          <mxGeometry x="530" y="270" width="120" height="60" as="geometry" />
        </mxCell>
        <mxCell id="XIqV0Pejdu-KuDgtfEbg-6" value="" style="shape=image;verticalLabelPosition=bottom;labelBackgroundColor=default;verticalAlign=top;aspect=fixed;imageAspect=0;image=data:image/png,iVBORw0KGgoAAAANSUhEUgAAAfcAAAFMCAYAAADWePWRAAAgAElEQVR4Aey9CXQWVbo2mrXOaduWOYEwj4KMMoNMKoOCyDwoCMgYgjIICMiMyCQziETmQCAjISQkIYSAEocGlW5tbe3W9ni029N/u473eq73ePyv3X3ve9ezw04q9dVX8/jVrrW+VfXVXG/t2s9+h+d940hMQgJCAkICQgJCAkICMSWBOOnT3Lp1i27cuCF+QgaiDYg2INqAaAOiDQSkDfzv//2/pVDOlivBHcBet25dGjx4sPgJGYg2INqAaAOiDYg2EIA20KFDB1q2bFl0cIfGDmAXk5CAkICQgJCAkICQQDAkcPr0aZo9e3bEzVZq7gLcI2QjVggJCAkICQgJCAn4WgIC3H39esTNCQkICQgJCAkICRiXgAB34zITRwgJBEoCCKrBhz728ZH01VdfBerexc0KCQgJmJOAAHdzchNHCQn4XgIA8tWrVlGLJk1o8oMDacW40QzgfX/j4gaFBIQELEtAgLtlEYoTCAn4SwJXrlyhJydOpOaNGtKK8WPp1y9voc9TDrDf8D69KD8/3183LO5GSEBIwHYJCHC3XaTihEIC7kvgv/7rv+jIkSN0X5s2NLhHN9o/d2YloHNgx/yNLRupXevWpMR/df+uxRWFBIQEnJKAAHenJCvOKyTgggT++Mc/UnJSErVo3JimDXmYrmxaqwjqUoB/btwY2rhunQt3Jy4hJCAk4JUEBLh7JXlxXSEBCxLIysqiR4cOobbNm9PmqU/Q7b07NEGdA/zHB/dQ88aN6G9/+5uFOxCHCgkICfhZAgLc/fx2xL0JCUgkADDesX07tWjalMb070cnFy3QDegc2Pk8JXmuCK6TyFYsCgnEmgQEuMfaGxXPE3MS+PDDD2nm9OlM214wcgTzm3OQtjKHbx7Bd2ISEvCDBH7++Wc/3EbM3IMA95h5leJBYk0C+Dj79uhBndu0oZeffopgTrcC5vJj4Z+/v0MHEVwXaw0ngM/zwYe36fyFTPrzX74O4N3785YFuPvzvYi7CqkEYHoHNz2xfn3GTc9ZucxWQJcD/Jzhj9D+fftCKm3x2F5L4J///CeVXS+hjKJddPLqXMopOEaffPqR17cVE9cX4B4Tr1E8RNAlgBoO4KYnxsdHcNPlgGznfxFcF/SWE9z7//HHH6mwOI/SStbQyWszK39ZRQfo9fIyAvCLybwEBLibl504UkjAkgTANefc9P5dOkflptsJ5krnOpA0m56cMMHSs4iDhQSMSODbb7+lC/kZlHplUSWoSwE+7fI6BvwYAIjJnAQEuJuTmzhKSMC0BJAWFtz0xIQE3dx0JVC2cx0GF7AeiElIwGkJwOyek5/KzPBSQJcvA/gxAMBAQEzGJSDA3bjMxBFCAqYkgLSv4KYjLaxRbrqdQK50roK1K6lrp46mnkscJCSgRwIws8PcDrO7HMij/ocfPj9V+OH1CFi2jwB3mUDEXyEBOyWAtLCcm4687la46UqgbOc6EVxn55sX55JKoNK/fnmdfmCX+eHfvlku/PBSoWosC3DXEJDYLCRgRgJICwtuemJCPNnJTbcTzOXnQpa7di1bisx1Zl64OCaqBLT861G1dgm4Y59zxS9RcUk+/fTTT1GvJTZUSUCAe5UsxJKQgGUJIC0suOlIC+sEN10OyHb/3zlrBs2c9pRlOYgTCAlAAn/47BPKvXRa07+uF+BTS5ZQXkEWfffdd0LAGhIQ4K4hILFZSEBLAuCmb9qwgXHTkRbWaW663YAuPx+S5iArnpiEBMxKAP51mNGzi16lk2WzTZniowJ+aRLlFpxhAwez9xeG4wS4W3zLMBF9/bXIqmRRjIE8/NatW5Xc9CVjR1Wrmy4HzCD9F8F1gWyOvrlp9Ikwn8OMHhWgZSZ3w/uVzWYDBwwgxKQsAQHuynLRtRamIZiIsgpS2ChVJF3QJbZA7wRuOj4a1E3v2f4+z7jpTg8Wpg8dTK+lpAT6XYmbd18CvE+E+dwwYJsAfAwgSkoLSeSlj3zXAtwjZaJrDfMlFZyhk6VJrBGLYA9dYgvsTuCmP7d4EeOmT35woK666U4DsJPn//XLW6jLfe1EcF1gW6z7Ny7vE90Ad1wj9fJSuliQQ99//737D+3jKwpwN/hy1HxJItjDoDADsDuqpnFu+ronJhqqm+4k+LpxbjwvBjRiEhJQk4Ban+gWwJ+6uoBy88/Sv3/1pdqthmqbAHcDr1uXL+lOsIdoZAYE67NdwU1HMRXUTUdZVD9z050GeRFc57PG6bPbgTnccf+6XnM9/PCXjtC7773jMyl5czsC3HXKHSaf/MJs0uVLEo1Mp1T9tRu46RVpYeMJCV3e2LLR0YpsTgOzHedH5D+ofWISEpBLAH0izOG6+kS9AG3DfueKtlBpWXHo/fAC3OUtVuE/tHCYfGD6MWJmQiMTwR4KAvXZKnDTH+zfn3HTkRbW7rrpdoCsl+eY/NCDlHrqlM/emrgdLyVgtk800n9a2fdMySoqKMqlH374wUsxeXptAe4a4oeJB6Yes1xNHuwR5kamIWJPNoObjrSwqJsObvq5ZYtCr6VHG0AguK5FkyYEpoCYhATQJ2aeT6XU4uUsmA19nPxntr80CuhQuOTX5v9PF66nnPMZ9M1//DmUL02Ae5TXDl8StG5o30YbnHx/NMALBen0578IPnwUcbu2Gtx0lhY2viItLIArGqiJ9QcqZSOC61xror6+EHLEX7lazPpG9I9Kv5ycLDpdtNZyvynvR5X+Z+QforyLuYr3we/t5rvh9MELcFf4lKBlM1/S5aX2NVBUNyo4Rh98eFvhimKVkxLg3HRUPQM3HWlhBXBXAbceWcBV0atjB5G5zsmGGgPnRtBxTm6GaUunEoCrrUNZ2ILCCzEgOfsfQYC7TKbQrqFlG/WvqzVA6baMol1Udr0k9MEeMrE78hfc9NWrVlVy05F5TQ+QiX2UgR+uC8QmiElIIJoE3nv/JqUVbrZPKdIRYJddcJS++eabaLcU2vUC3CWvHlo1tOuTV+c62jjTStZQ0eU8golLTPZLANz0sY+PZHXTV4wfGypuutMDE5StRV16MQkJyCXgttbOlSahvcvfRMV/Ae5ETIuGNg2tmjcYp+dokBfyMwjlEMVkXQLgph85cqSSm56SPFdo6SnKGriVAYAIrrPeVmP1DF5o7byfFtp7ZKsKPbjDvw7KBLRp3lBcm8MPn59Kn3z6UeSbEWt0SYBz01s0bkzThjwsuOkOALp8MLBy0jh6YcUKXe8nVnbipXxbNmsmWAMKL9UrrZ331UJ7j3wpoQZ3aM3wr6eWPus+sEt8SVlFB+j18jIShWciG2i0NehskRYWddPBTb+9d4fQ1F0AdgA9guu6tL2XMLCK5UmplK9gDSi/cS+1dg7wQnuv/m5CC+7QlqE1O+1f5w1Pa552eR1L44gRsJiUJcC56UgLC266qbSwC/tTXFycyq8VrdusYM6OctyUhQr7ugSyco3azf9weyCuIRYntVK+YRnYGHmvXmvtvG8V2nv1txY6cId2DC0Z2jJvFH6Zi8Iz1Rsn/8e56c0bN6IFI0dYN71vnkBTFAB+yuT16tr/5uTK43oMmkAnlAYBIQB2PoiIpeA6TpfUU8oXg0pYjcRUIQE/aO28Dxfae1WrDBW4Izq9sDiPoCXzxuC7+Z3CMyifGOaJd7bIa8656XamhT0xSK6996cTWsC8eQL1iGtFUxZqDAK0zhMj25F7v13r1oH2QZst5RtLAxsr/YxftHbejwvtvepthgbcUeQg53w2ZZ1PY+Z4mOQjfgUnHOO388bH57AcRFyf39PF05SRkUEfffS7qjcVkiXOTUe6U9RNR+ESrinaOY8A99YTqEwNdKG1t45islc7Lsa3PTduDG1cty5wrdNqKV/BGqh45X7S2nnfKrT3incTGnBHOlkE0EX7/fWvf6XsnCw6WZrkilaPBvi73/0u6v3gPsOUjx6d7ZMTJ1Zy051OCxsB7oOSow8i7mjsir74GAdvrQEVrClwlyAewu+T3aV8gzqwses9+U1r5+AutPeQgbtWg/70D59QRuE+V4AdjVA0QGLmXHDT4edE3fT9c2dGB1ibQVQ3uAtg13wnfg+uQ1Q/qyeQYG8pXwxs2rVoQbA2hXHyo9bOAT7n4hn67rvvwvhaKp85NJp75RMrLCDI7vwF97R23gDDaj5CZ1hRNz2BcdOvbFqrCSBaGqSx7etpXWuZz11Jc1/Yn/nYhcauzQjA4AzWFz9NnJsOuiTqCdgZs8Hbm98HNk69D79q7bxvPV28iq69XurU4wfivALcichtrZ03wLBp70hbiijj5o0aesxNjwT3HvJIeQC78LHrHnRhgHZ/hw6eB9cpcdM5EDs1D2NwnZ+1dt6/5uSlEWKtwjqFHty90tp5A4x17R1+TtRNBzcdnaApbrrNJvnPUzTAnQF7/9BT3YyC4Zzhj9D+ffs86UvVuOlGn8Po/n4Z2LgleL9r7bxvDbv2Hnpw90pr5w0wVrX3Dz/8sNLPaQs33VaAr+Kr84Q2PBlNGUtWI4DdKMBhf7eD6zhdUg833czzGDnmmVGP0Y6tW93CV0+vEwStnfevYdbeQw3uXmvtvAHGkvaOBgVueuc2bRzzcxrpdJX3VQZ3s8BedocmF2Hat3VAou33Vn5Wd487kDSbnpwwwVHwMctNd1I+bg9sHBWwysmhtWfnZFBq8XJKvbw06u9k2WxXgpNRmlvtPtIKtoXW9x5qcPdaa+fgHgva+5xZsyixfn1Huen2dc5ycG9FUybDx64jkU0lYK8nDAZ6SALzBLhXDCTq1a5FCGaze7LKTbev/SgPmMIQXAd6bklpEZWUFkb9ZWVlMvDn/ZuT84z8Q5R3MTfqveA+33rnht1NMRDnCy24+0Vr5w0/qNo7TKPTp0+npk2b0tBuXXUHYDnd0aqen9HbZNHyhoD9AJVN7k9xrVtVy1EfZnAvXPcC9enQnmrUqEHNmzen1atX29IB2s1NV20XlQM3ZfDWc2z/Lp3pxo1wggleOEsWlpfmitaOvjMWFCNbPhSFk4QW3P2itXNwD2IjRcc7bNgwWrduHZWVlVGdOnUInbyeTtDTfeTgbhDYq927pKBMGMF93eTx1LZFC/but2/fzpLZvPjii4Sflckpbnq1d2cDmMvPV7B2JfXp3s1z1oAV2Vs5FvQzBLLxfs2NeVAVIyty1nNsKMHdb1o7/wCC1EjR+Xbu3JkOHjxI5eXl7Ldx40Zq07xZsMBdK+2sFgCEENxv73mZRvfuSfH16lHvXr0iTPBWwN0NbrockO3+7yVrQE+n79Q+bmvtvN8MomLk1DuQnjeU4P6nP/2JMi7td3V0yRui2jwojRRmx+7du1N2dnYlsHOAb9O6NW2bPsXfAM81d6vADuAPEbhnPr+EOrdpTTVr1qS5c+dGreduFNy94KbbDejS893eu4PatWwZiJS8UjCwuvxG+TU6XbTak341SIqRVTnrPT6U4F5QeIH5atSA1qttfm+kKSkp1Lt3byouLo4AdgD8yZMnqV7duv4GdwCyHcAeEnBPHj6MWjRtQg0aNCCkC4Y7Rm3SC+5ectOlYOzE8s5ZM2jmtKfUxBRT27zmvgdFMXLzpYcO3L/55hsCgHoF3lrX9XMjXbx4MU2cOFER1LnmjvmECRNoeI/u/gZ4LXO73u0xqrm/sXUTPXx/F6pduzYNf/RRQ6ll1cDdT9x0J0Bdek6UKsYAJgyTH7jvfleM3G4HoQN3P2vtHPj91kh54Nxzzz2nCewAd2j1CfHxwQiu0wvi0faLMXA/MHcmdWjVioH6ypUrTRVFUQJ3P3LTpUDsxDKC67p26uh2n+769bzW2nm/6WfFyPWXQkShAne/a+1+bKTolHv27El79uzRBexcg1++fDl1at065rV3RomLq6DV9VAqPhNtUOCz9ZMHPECNEhOp7b33sk4BGrbZSQrufuemOwHq0nNOHzqYXktJMSvKQBznB62d951+U4y8fIGhAvcgaO1+aqQwKXbs2JHOnj1rCNg5wIP7Dk1Q2tnFynLZ5Oocd57GFvOgUOKk3PSpU6faZkIGx33kYyNYPQFUi/NHPQHz3HUrbfbXL2+hLve1i9ngOr9o7bzfFNp71XAiNOAOrT0zK4Ny8lOj/wpOENIZ8obi5DyzaE/0+8hPpazcM3S5pLDqTbm8dOrUKerTp0/UwDkO4GrzQATX+UyDtgIkeo9V4qbb0bw4N71urVo0Y8hD9MaWjTE5sNMrZ77fS9OmUPK8uXaI2Hfn8JPWzvtrob1XNJPQgPvPP/9M3377bdTfX//6V8rOca+me0bhPrp589dR7wf3ilSPXkzwtY4ZM4YlplEDbz3bHh85ksY+0Ed08h4PIrS46VbaWSxw0zkQOzVHrQUUU4qlyW9aOwd3ob1XtLLQgLvWR+V6xrrSJDp/IYuQUMcvE/yso0ePpmeffdaUGV4J7C9evEj16tUjRF871XGK80Y3Oevlphttg7HGTXe6DeWsXMYKKhmVs5/396PWzgFeaO8hC6iL9qF4lbEO2jsGFX6Y0Fn36tWLkEJUCaStrFu0aBF1a3uvAHcXtXej3HS9bTCWuelOA/zkhx6k1FOn9Ira1/v5VWvn4J5asoSKLuf7WoZO35zQ3IkYwAJoecNwbe4T7R3mwk6dOrEENFZAXO3YWA6ucxoU9J7fCjddraMJEzddr6zN7IfgunatWmkmAVJ7F37Z5metnfffYa7ljnYSenD3SmvnDdBr7R1m827duhHmauBsddtrr71G9ePjhfbugPZuBzddCTTCyE03A9pGjln3xER6bvEiJXEHZp3ftXbet6KADQrZhHUKPbi77mu/NrO6hQDae262J+1v27ZtNGTIEFsC5/SA/8CBA2nWsCEC4G0CeDu56dIGGHZuuhGwNrrvxwf3UK+OHQIdXBcErZ0DfJi191CDu9daO2+Abgd/wMw6efJkmjlzpqPauhzwYR2oVbMmIXLbaKco9q8ImnOKm44shPv37RPcdJsGXmrt9dyyRfRg//7S8VRglqG1Z+dkUGrxckq9vFTxd7JsdnUFRq7QOPG/NEnxXtIKtoVWew81uHuutd9p5G5SN9CJQ4NGFjE5+LrxXwTXRY9sVwMEp7npiQnxhFKlgptu7v2ovTulbcP79KL8/OAFfIGeW1JaRCWlhRG/nPPZlJVzjlJLn3Ud3FGNDnlM8gvyIu7rrXduBGbwZOeNhhbc/aK1u6m9I3AONdjh/3YDyJWuUVZWRk0aN6bjC5OF9q6hJQpuujtAqwS+Tq9DcF2LJk3ISppfO4HA6rl+89v3KKfgBJ0sTXId2Hkfigj5vIIs+u6776w+TkwcH1pw94vWXtkwrywipMd1aiopKaG+ffsq1mBXAmEn1+3evZuaNEwU4B4F3AU3PXZBXTpoWDlpHL2wYoVTn7wr5/3xxx8Z5exc4TbPQJ33oWxemkS5BWfoD5/5g2LsykuIcpFQgrvftHbeOJ3yve/bt4+Z4qPVYHcSyKOdu2+fPgQutrSzC/uy4KaHA9R5O0dwXZe29xLS9gZx+vevvqQL+RkEjZn3Yb6Yl82m7KJX6e2b5b5KEub2Ow4luPtNa+cfhBO+90cffZRQFCQayHq1XgTXVQCZ4KaHC9A5sPN5SvJcGvv4SLf7fUvXg3L05ttvUPalI3Ty6lx/AbskWO9c8UtUXJJPCAIM4xQ6cPer1s4B3k7t/erVq3TPPffQ3XffTV27dqXU1FRfgfzTM2bQwPu7hFJ7F9z0cIM6B3fMgxRc9/3331P+pVxKK97gW1DnfSnmYfPDIzdFTk4OYR46cPer1s4bpJ3a+40bN6h3794sQc38+fOpZs2a1LJlS1q8eLEvQB7BdfXr1yf4mKWdXSwvC266AHV5+wZDoV3r1r4Prvvk048oN/+sJ9HwvH80NY9xP/w//vEPljfhlVdeocOHD9OhQ4cIfX+owN3vWjtvuHZp7xzcpab3TZs2UYcOHah27dr0yCOPWCrpKj2v2WUk0mneuFFMg7vgpgtAlwO6/P9z48bQxnXrfGk9RkXNq9cuU1bRAfKEwy4xtfM+0vA8Bv3w//3f/80SkO3du5dOnDhBly9frgT10IG737V23mDt0t6VwJ2D8NmzZ2nUqFHMbN+uXTt69dVXPdPmYzW4TnDTBajLQTzafwTXYZCLAk5+mlB6+nxuFp07/xqlFWyx5Xf4zHrauP05Xb8XX15Kp/NesuW6uP/0nBNUWHyRMGAJ6vTNN98w0/vOnTsJ/Tjcr+jr+Q8ae6jAPShaOwd4O7R3NXDnII8I+ueff57q1q1LjRs3punTp7sO8migCfHxMZG5TnDTBaBHA3Ct9X4Mrvvyyy/p448/tvX3/OLFtODhwbSo7wOavznjx1N6erqt18fzIHYgaBPylBw9epSZ3eFX52Aun2dlZVFeXl54zPJopFnZ6ZSTn6r4y84/5knkZ1rRJsX7yco9Q1euFltqf3rAnYM85uCf9+nTh2rUqEH9+vVjo0PpdieXp0yZQoO7dw2seV5w0wWoa4G3nu2De3Qj5PaP5Wn9ypW0su19tDGhgeZvyeOjmLIRy/JQezaY3l9//XXWN8P0funSpaigzkE+dOAOzR0mJvnv66+/JqRNPFe0xZPoz1NXF9D5i2fpvffejbg3JIiwMhkFdw7e2dnZjD4HkG/Tpo0rqWoRXFenTh2Cf1pPJ+iXfQQ3XYC6nW3xyqa1dH+HDr4PrrPSLwlw15Ye3DPQvvfs2UNpaWkRpncO5Erz0IG7kjj//JevKTcv0/skDAj2uHSE3v/NLaXbNL3OLLhzkAfgrlmzhlCLPSEhgfno+TYn5kEJrhPcdAHodgK6/FzI8Y8iPrE6CXCP/mZ///vfM9P7wYMHCSANrV0JwNXWYVBw5syZ8JjlpeKEFo/sRTkF3pjiuV9dPk8vepnKrpfYFuxhFdylAI589Iiud5ozj0h+BKLJOzw//HeKm462iQ8yvl49mvzgQIL25ofnFffg/iAGMRvjH+hDdWrXZpY8ab8VK8sC3Ku/SdQXeOuttwiZRI8dO6bL9K4G7ihIdPLkyfCBO6oaFRbnEbIXycHVD//TStZQQVEu4T6tTnaCOwd6ZJZzkjOPRplYv76vguuc4qbz95uSksLSA3fr2pWWjXlcAHuUnPuxPNhAzEaP++5juSiQUbJhw4YsEQlvI7E0F+Be8TZR4AaD+l27djFNG7EWaqCtd1sowf2Lf/sT5V48R6Ca+QHIo90DSiZeKEgnuA2sTE6AOwd5zOWceURwSrebXZ4wYQIN79HdU5BDZ9unQ3sWXIjO9tYte10m/L0iodDEiRMZXzWWWAOxDMR2PhsGcy2aNqEGDRowzQ0lmTG1atVKgHtCA4rFgDrUEoDZHJq6WdO7GtAj6A5R9aFIYgNOI8uFXHg4OEkYrs5lboMPPrzNccDw3Glw5+DNOfNIjAPOPEaifJuZOeh5oMZ5EVyHzrZtixass92+fbtjvGN04qNHj6bnnnuumqz8MLCxE7zEuSJN+4jZGNGzB0skNWjQIMXoeAHuFZH0sQLuML3fvHmTATqAFxq7GkBb2QYLAAYOMQ/uMH3AzB2UXMhybT6jaBe9Xl5mqrqRW+DOAZxz5hMTExlnftKkSdWAi++nZ7569Wq6r2ULV7R3dLaje/dkPm90thhNOzkh7/OAAQMIgwe5LILKGhAgHgnicpkcX5hMHVq1YqC+cOFCVc1cgHtsgDsG8YWFhYQscgBbu0zvauAfCnBnuZALzgQvF7Is3WLa5XUsTsAoNc5tcJcCFTjzAErOmTdTtKZN69a0bfoUxwAenW3nNq0pPj6e5s6d60rpTZj3e/TowQJepPKSLm/cuJHaNG/m2HPLQcfQ/4X9KS4uTuXXitZtVgC6KMdNWaiwb4z53J8e/BA1SkykZs2asQ4eWpzWJMA92OD+xRdfMNM7qGwZGRl07do1xzR1OdDHPLi/9fabTKg5F08rJomJlsxGbf3G9Sto0fy5un5Lnp1PaVlHbLt21vk0xsc3AvBegjsHK86ZB4cdnPlVq1ZFaKt8X/kcwXX16ta1HeTQ2cLPic72yJEjxP2cWh2u1e2ZmZksSRCCEuXPKv/vZ9bA55sn0BQFgJ8yeb36u9qcXHlcj0ET6ITSICBGgB0upYFdOrPB7bhx4wzHbAhwDx64o4DL7du3CQVcwC5y0vQuB3T5/82bN8euWR7R5vKENVb/J8+ZQ8s738+yKyHDktpv/pNP0jvvvGP7PRgBGD+AOwctzpkHwHPOPMz4fHu0+eMjR9LYB/qog4YOQEBn+/D9XZhJFJ0tRrduThs2bKDhw4ezwLlozypd79TAxpCWriLXE4Pk2nt/OqGyP7vu5gnUI64VTVmoMQjQOo+Pt8PShJgNDGbXr19vOmZDgHtwwB3KAYq2INYI3y0v4CIHXDf/xzS4O9FxPzNvHq1p1lwzZSLSKi6aMoU+/fRTJ25D9zn9BO5S4OKc+Vq1arE682pFa6DlJiY2MB1ch84Wfs76CQm0cuVKVT+nbsEa2BEm2MmTJ9O8efM0BzJSGWHZz8F1EeDeegKVqYEutPbWUUz2ascFYBu46aBLIk9B586dbYnZEODuf3DntdNhekf+ezdN71oDBQHuBjpp7CrAvdwwQMkBS/qfc+ZRtAZ15qMB4PLly6lT69a6tXfe2cLPic4WgSx6/JwGm4Pm7kghOXDgQNPpe71kDWhp+BHgPig5+vu5o7Er+uIDAN7RZCHnpoPiZNckwN2f4C6vna5WwEULgJ3cvmPHDjp16hTNnj07oknG8TW4gcGDB/O/oZ4LcLcX3KVAD858t27dKuvMyznzSIGLDHHROlqs59x0DBac5Kbr+QhQwQmBc7BSSJ/T6LKbrAE12cq36Qb3GAT2aNx0Pe1C7z4C3P0F7tFqpzsJ0FbODWsCCs0IcNf5xQlwdw7cOehF48wDJKZ4sn8AACAASURBVOvHxyuCu1vcdJ3NhGCR6Nu3LyGYkD+XlbnTrAE5cGv/X0/rWst87kqa+8L+zMceCxq7Hm663vahZz8B7v4Ad63a6VYA2MljBbjr+cok+whwdx7cOQgqceaHDR1KTz44kAG829x0STNQXUTyiCFDhpCeYEH+rFpz/wXXRYJ7D3mkPIA9BnzsRrjpqg3D4EYB7t6Cu97a6U4CtJVzox86fvy40Nz1fncC3N0Ddyngcc78PffcwwrXdGjV0lVuup72AZ9+UlIScwdI792uZbtYA9pauR7euQa4M2DvH2iqmxluup52oncfAe7ug7uZ2ulWANjJYw8fPsxovsIsr/OLE+DuDbhzgISZG+ltkRzHLW66nqaBexk2bBiLxuf3avfcKmvAHlDnwF/FV+cJbXgymjKWrCaYwG6Vm66nrejdR4C7e+BupXa6kwBt5dwC3PV+aXf2E+DuLbgDMFF2FlH1fplAh+nZsyeh/rLdgC4/n1HWgL2AzoEdc2VwNwPsOKaHJCEOktuoUuociK63i5tuZ5sU4O48uKN2OlxeVmqnWwFgJ48V4G7waxTgLsBd2mTwcXbs2JEQBCgHYqf+62ENOAfqHODl4N6KpkyGj11HIhsJOJ8Y1Eo5ja0WZ15yDrPPyumSdnLTpW3D6rIAd2fAHe4zae10lEd1EmS9OjfqwgPghVle55cowF2AO28q4JCCw25n4JyeAYEaa8As0Bk+jtHbZNHyBoEdKWx7DEqu1NLLFiJ7XdU5uZnf8L1pAL+T3HTeNuyYC3C3F9xRQAwFXOyune4VeGtdFzQ4JAcT4K7zaxTgLsAdTQU12MeMGaM7lawe0Dayj5Q1YDf46TqfHNyNAnsUAC6bzDV5+zPZucFN19mN6NpNgLs94C6tnY4CLq+//npMaupysBfgruszq9pJgHu4wR0mPaUa7EaA2Y59EVxXr149Ah1QFxhHAVPTx0rB3UYTeiW423ROt7npVT2F9SUB7ubBHd8pCriADuZ07XQ5qPrlP6pwooCN0Nx1fosC3MML7gic69Wrl2INdjsA2+g5Fi1aRN3a3ustuNsEwhWDDE6vs661e8VN19mN6NotlsH9REoKLZg2jZ7v2ClqnY4NDRrS0r4P0PyZM+lPf/qTLpmBtcJrpyNQzo3a6X4Bc/l9IOX2gQMHBLjrajkit7xrQWNqQOdFtDxPJYsOQ+3e3N7mWXAd6G62AvsBqtDarQG719x0vf2Inv1iGdzx/F9//TVtf/FFBvKotIliW/itb9SElj70MM1/eiadOnpUF+UVtdNRuMWL2ulyUPXLf93gDlOkmEThGLfBS+l6boN7SkoK1axZk7Zu3eorYIdsQOFpWL++N9q7naZ+xo03B+x+4qbb2UfGOrhzWQHk92zfTkkzZtDiIUMpedYsys7I0AR1ee303NzcUPjS9Q4e0tLStDV3UAVQPg5h9dBgwjwJs3z4zPKoyd2pUydCMZpmzZpFrVynNBBxYx0i9mcNGxJcgFfMZree1mnw3f3ITbezbwwLuHOZ/ed//ieVlJTQ//zP//BVinOY3svKynxVO10v4Lq5X1ZWFos5UPW5A9x37txJRUVFrMoMUoHevHnTkxKaim/bxZUC3MMH7i+++CLzWwGot23bxirX1ahRgyXTkVeucwPM5ddAcF2tmjUJvG3TAXJ2auFGziVLYMOz3bG5QiEav3PT7eyKwgbuWrKT1k5HXgk/1U53E7T1XksXuAPU0anxk169epXVx967dy9dvnyZkI83LJMA93CDOwdWpMEdNWoUAeSRDhfcWb7Ni7mnwXVGwFy6LzPFV/HaqwF7XBxJee5B4abb2Q8KcCfitdNhNcbPr7XTOTb6aa4L3BFxuGXLlkpw5w+AkROCGKDV5+XlEfLzxvokwF2AuxS8YR58/vnnKTExkf0mTZrkCcjjPpo0bkyIEg+c9i4FfNly0LjpdvZ/YQZ3ee10KJgcd8T8hi5ZAJMRYKhqlo8G7lIhY5SA4B5EEyNyMVYnAe4C3KXgLl1G+0dBm7vvvpv69etH4JlKtzu9DHdZk4aJgQf3IHPT7ez3wgjuqJ0OUILCCNM7rMRSnBHL+oAdcoI7HX2CZXDnQscJkR4T5PlYDL4T4C7AXQuk4QOfOnUqi7Bv06YNrVq1yjWQ79WzJyUPHxZIgI8FbroAd3MSkNZOh6LI8UTM9YO5XFa2gzu/AHzxSH+HkQOS9CNjUCxMAtwFuGuBu3T7mjVrCACPSHv46J3OQx/E4LpY4qbb2cfFuuYO0zuwARgBrLh06ZIA9RvmwZxjL5/DlQELiKrmjly8oMLxg4zMYVY5c+YMCzgC4PupBreZDxHgvqrNvZUJF3jiBaV58pQp9Omnn5q5jG3H4F317t3bNc1RCmxOLbvNc5dGy5t9JrircN/33HMPde3alRV0MHsureOSkpKoT4f2vtbeY5WbbtuHS0SxCu7S2unABmF6tw/QpdgMd/r27dvVwR0HmAV3fjEMEHgGIUQ8wrcSxAn5igHwSx4fRWuaNY8AeZYy8f6uLCHDa6+8Qn//+989fUwB7tbFbwe4c0CG5j5//nxHOfMIrqtfvz4hwtxvwXWxzk233tqqzhBr4B7LtdM5zvlp7hq4Sx8a4H7o0CEWfIeKPUGc0FkD5BePGUsvtGpDlXmQn55Jh/btIyRk8MMkwN36W7AT3DnIY+4kZx7nbt64kS/APUzcdOutreoMsQDuYamdLsU3vyx7Au784eHwR8UeVO5BQAU4jUGbkMxn2cKFNO/pp3XnQXbzGQW4W5e2U+DOgd4pznzfPn08Da4LIzfdemurOkOQwT1stdM5pvltDou7qs8dN4ydnKqDixEGAiqQFAfXCGJSHK2UiVWfrLtLAtyty9tpcOcgzznzDRo0oISEBLLKmcegoW6dOq5nrgszN916a6s6QxDBPay10/0G6vx+dIH7pk2bHC+fh8AKJLsH8R5l+4IefFf1mXq3JMDduuzdAncO8pjbxZmfMmUKDe7e1XHzvOCmW29n8jMEBdxF7XRnAuI4QFuZ+wbc+UNAe8/IyGAgjyC8oAbfyT9WL/4jMhXpUYcPH84oJ1IACepyEKPlzcraKmce1oA6deoQotOdCK4T3HTnvmq/g7uone5fUOdYimj5efPmRTTSOL4GO7qhufMbks5Rxg/Bd/DNI9pSTOYkgMQQAEVwrpEu1Wm+tVkw03NcmMBdKg+znHkngusEN93cd2jkKL+Cu6id7n9Q5xi6Y8cOAjVWPvkC3PlNIsHBsWPHWPAd6GhBDL6TC9iL//CJJScns9KlEyZMYCkepQAShOWwgjt/N2Y48926diX4wq1o74Kb7u4X6ydw5wVckHkUGUhF7fRgALwucN+wYQMr+crB1qs5gu/QuaEKV1CD79ztIpSvBpPakSNHmMl+wIABzDLDwcPv87CDO38/RjjzyNOdEB9vKrhOcNOVvyGn1/oB3NFPwLWD/hZBz0hE5lXfL65rfECBDHXIqyGfqmnuMAmCuuYXAaMiHQ++Q6EBUC/EZE4CGDA98cQT1LRpU1qwYAHBz8sBxI9zAe6RKYD1cOZhqRneo7su7V1w0819S3Ye5SW4I84J+UgQ3CxqpxsHVb/g5P79++mZZ56JaJa+BncuPGjvvG4tgu+++uqriAcRK/RJALJ74YUXmMkeedBhfhPgTuRFtLxZuatx5vUE1wluur5vxY293AZ3bnpH3XTEOYna6cEFdY6PgQZ3/hCYww+EholfLFakc6NDwTVAbTl9+jTLSY886LDaABjMAo7dxwnNPVJzl8sY70upzvzGjRupTfNmEdq74Ka79XXpv45b4I68IlCSkGcEpndROz34oM5xMWbAnT8QGicaKTLfIYNcrFSk098t2LfnrVu36Omnn2ba/IwZMwiaoRxI3P4vwF0b3KXvRM6Zb9iwIa2bPJ4EN92+78SJMzkN7tLa6XBxigIusQPqHAthfV28eHFE86xmll++fHngzDTwJUMDxYgUmkwQM99FvBWPVoAvj8jL5s2be86ZF+BuDNw50HPOfI0aNah27drst3DhQuHK8uibUrssXGQoE+yEmxGUYlCLYXoXtdNjD9A5sGOuC9yfe+65wDYEBN8hKASRgwi+A1CJybwEvObMC3A3B+4c5DGPi4sTFi3zn4BjRyJo+bHHHmPlXqGY2DVJa6eDUixqp8c2qHOAj3lw5w+KOYAJZkrUEUYyBjGZl4BXnHk3wR3Wny5durDiC1JwDPoywF1M/pAA6GYvv/wyA/Tx48ezNN923RlYRFBoEPUuaqeHA9CleHfq1ClaunRpRHOq/Pqxc5A1d+nD8mU0eIxqRPBdxHs3vELKme/du7fjnHmnwZ0/D3ye0KJQwAWVlYIO6NL7F+BuuJnbfgCCftGuGjVqxIJW7TTB89rpiDuCQoOAOd73iXl4QB7Wn2XLlkW03ZgGd97AefDd7t276a233hKmyohmYGwF5ArOPCqbOcWZdwrcYYkAJxSdLea8sw0SFU4K4GrLAtyNtWs790aH269fP+revTuLCbIr4BfnQQAxAB2mdz/lJeH9rZi7O7DQBe4YYWLHWH05iBSF2QrBd8jCBO1NTOYlgLgGcOYTExPJbs683eAOzWbw4MHUoUMHlrVP3tkKcDffDsSRFRLA9wBKKQaO6EvBQrFrktZORx8NV1Ks9tPiuYwNDsCCWLFiRURTq6a5xzq480aD4Dskw4GPCkkcRPBdRLswvAIdDsz1AE87OPN2gDveK/yc6GynTp3KOsNoDybAPZpkxHotCaBfQftCO0N7s7M/QcwQFBJo6qiiKUzvxoCP9/mxPIfisnbt2ohmGkpwl75ogDuC75DLHiZbMVmTAHyM4MzDZG+FM28F3KExSf2cejpbAe7W3nvYjoblB3UbMJiFRQgdrF0Tzo3CWQB0xAwhdkjaZ4llAfBoA1BSMeADfRk0dvkUenDnHwp8V+CFoiISAEpUpJM3FWP/4fLgnHl0foh3UPMPy7cZBXd0iLAewMcJXyeWjUwC3I1IK7z7IkZDGrNhp0KAbwbuQrgNoWwI07sAcY5P0jnaCNoH2klhYSFL5gZlRj5VA/eZM2fGtM9dKqBoyxAcMt9BcDCByX2zcgGK/9oSwMAJYI2iNXrrzOsFd3S2Uj+n2ZTEAty132OY95By06Gx2xmvI62dDnchNLJo/ZNYH17AR+p1WHKggMKyw7EJiowmuMNvBGCLtQaUkpJCW7duNfRcCL5DoALKIGJ0ZOfHHNZOEkCMOvMw2WvVmdcCd2g14AuDygY/p9X3I8A9rK0y+nOjTTnFTecFXETt9PCCtR6clcaHYeCnlLcldOAO+hv8YNfeeIvmPrOcfnHXXdShU2d640a5IZCH9g6/Bg++Q65mMVmTAEacvM58NM68Erijs8VxnJsObcquSYC7XZIM/nmc5KajDSNNtqidLkBdDdy56R3tBMtqykuowB1VsWrUrEn3dbyf0q98WO2XceUDemDAw2z7tGnTDAE9gu+Qqxm+eTt9bcHvDs0/ARq4EmdeCu7RuOnmrxp5pAD3SJmEbQ06SSe46ZCjqJ0uwFwNzPk2YAySrnHTu57Yr5gHdwD6kKFDKS2niI5kXqX1u05UA3UpyB+/8BYlP/8SLXh+M+WXvUdTnppBkydPZpo+F7LaHDmbAfCIZoXvQ88LCFtHafR5EdEu5czff//9NGjQIFVuutFrqO0vwF1NOrG7De1OGrNhJzedm97RWYva6QLco2EKTO+oi8Ktwzyxlt6vThe4T5w4kTnso92EX9fv2X+I6sYn0EOPjiUAtxTI9Sy/sDWFuvUeQBOnzqKyN95mIA9/u9bzwu/LoxZhvpdWpOPH6n1BYr8qCaCx3nvvvfToo4+yd1C1xbklAe7OydaPZ8b36RQ3XdROF0DO+3+1OQ/ehukdrho107vaN6QL3BGghFGm2g35YRuC3ZAP/K677qKVm/YYBnMtwH/40TGsotbwx0bqkgUPvsPIC5zUqVOnseNHT5xGzZq3pIceftg1kFJrBGJbdAkIcI8um1jZwmM9nOCmQ0awAuD7R2VKUTtdAHw0rOTuXbto14EHdwDo6tWr6djxU3S++E2aND2ZoHFrAbXZ7QfOXCb8skt/wwC6eYsWUSPu8UHDrN+rT1969XQ+vXgwk7alnKfCX39J54pu0bgnZ9P2fUfo//7pHywlpZ6kKrHSoQblOQS4B+VNGb9PJ7npuBteOx3JsBDEG61TF+vDC/jAL16SHOBuZ2B24MG9YaNGVKNmLVq0ZqdjgB5tIACQn7FgJa3ddogKr92kMWPGMaAHqL/+xg1a/9JOZtaX3tvxvF/TwXPX2C+v/DN685P/gy7f+pJatWnHtPrMTPsyWhnv7sQRcgkIcJdLJPj/neSmwwqAIlRIziRqp4cXtLUGbLxoGfKmwPQudd3a9YUFDtzBt0eA3LSZcynrym9o9/F8On3pPdeBXQ74Jy+UU734BAbQoNftSMlSvafUS+/RoYzXad+ZUsoq+5hufPyfdCSjlK6+/xXd+t2XNHzECMPZ1OxqFOI8VRIQ4F4liyAvwW/pFDcdcuG10+EnFbXTBahHA3dueuflxp0MutYF7vBjw28c7YadXg/TBUAd3HQEt/V/eARtT8lWBU85+DrxH5H1DRo2ofu79aD9rx6nY1mlzIKQknld972dKbpNKdnltCe1hNKKf0PXPvhfdO23f6XpSUupT78Hqfyd91nGIaORkkHuiP107wLc/fQ2jN+Lk9x03A3omAieBUMGpndRwEUAuxwPeewVYi7sNr2rfRG+B3eMhMFNb9CwsW7AdALI+TkB3BhYXLj6Ps1OeoZp6oiotzrYOHv5t/Razpu0+9RlOnHxJpXe/oaZ7GG2351yjl1nxIgRlakF1V6q2GafBAS42ydLN8+Ejs0pbjpM77x2OqivMPPLO3TxX4A8qNFQSuGikbOm3PgWfAnu4KYnzU+mC5fLacuBM5740zmYS+dT5ixhIBsXF0eLV2x0bLBx7MI7zFwPjR7BdwB4mOzXbX+VPv7yO7p4qZhlZDNLkXCjYcXKNQS4B+dNOslNhxTwvSHlNBQOdJyigIsAcKVBHCw4PKmZ2ZoWdnx1vgP3Vw4fZSlhh42a7AtfOiLvEYF/8OhZOnI6iybPSKY5i9fr4M0X0qoFk6hdp7jKAQEGBe06daWhCw7TqlN3MuSdOkxDRx5WHChAg+fBd7lv/KFSk9/2yllq0qwF9erdl/7f/8+OZiDOEU0CAPexY8caqlwnr2Tnt/9oh7E0oYN1ipsOOfHa6XBNitrpAtCVAB2md8RawPSOgGo7o97Nfqu6wH348OHsppUeyuo6RA3Cpw/T+4u7jymCnFR7dnP52RUvVgIztHa91963ZRK1i6sC9XYLDtM+nu721GGaIQf8BYWq50bw3auZbzC/PILvXv/dt5VAf+uz76nfgAep7wP9CIVwxGSvBBDrgJS3qFy3ZMkSKi4uDjzQxwK4O81NR6CTqJ0ugFwL32B6BysCpnewJJyIejfbo+kCd9Td3rx5s21+JYxywE0/feYcHT93kSZOX+AoN10vKCPqfsqc56huvQR6YMBDdOHqbaahg/Km9xzpWyZVDgiYph4FuFeN5ODflWZwLZ4PAKLMEXAHU/3e01fodOH7VPbbv1J++R8ImvySpSvZdQ8cOGC2LYjjVCQAkAe4o3LdqFGjGDfVbxq53vsJMrg7zU2H6R0ZwmB6F7XTBbgrgTv85zC9I38BYi6Qz8CPk+vgDk0dWjq46cs37dcPmlEATzfoqhyPYDhQ146cLaCeffpFcNP1X6NQppWrAfdhGgrtvtOqKq1e5R6l94Dgu0MZ16lV2w4M0DFqxASqj1L9Xj82vKDeEzRGfDTt2rWjrl270qZNmwKnyQcR3J3kpqMtYtCA0pkwvYva6QLUlUAdMRYwvfOMo35POuYKuMNcDG76UzPnMW46NGE/cNMBmJ269mIACW56SuY1i4ONO4BdzSQf3eQO7b1dFM1eCuZ8+Xju2zRo2Bga9PAw+vSzL1hKYKWCFgjiAAiJyVkJQPa8ct3cuXPp4sWLgQD6oIC709x0XsAF6T7BO87NzbXNOqkEDmJdMAcNGFjC9A66o99M72o9nOPgnnOhgIYOH82Kt1ili3GQszLHoAIBcU/NWUzHs65Q0pK1LMucEW569OvLNXeY3idVBc/JNPN9CybR0C3VS89GP/eH1O6+DhQfH88i5dVeasOGDWncuHFqu4htNkoAI3gwPBITEwnxKa+99pqvQd7v4O40Nx1+UVE7PZhA69YAiZveAehwz/jV9K7WjekG9x07dhBK0OkVLje/oyPp1X+IL3zqAM7uvQcwTR3cdEO+dBkwRwPhfQu6svPjuat+0QE+2nmwftmGfZRQP5GaNGlCP/74o9p7rLYN76hPnz5UUlIiNPhqknH+D3xxvXv3pjZt2rCSoQARvb5wt/bzK7ijM3KKm443z2unI6IZ+byN9Gd6+z2xX7AHDdz0jpgLRL0j82BQJ93gjhGMEV4nBINOBAFqyCiH5a69BzCt2U2TPDRylHxt0rwVIfpdDUzt2lYVLCcF+K40dEt0Ez2/9t6TBTR2ylw6nXOFXli9lpKTk8ksV/Kdd95hgUEIEBKceHc/UWQue/rpp1kA3pQpUyg7O9s3IO8ncHeam463ju9H1E4PNug6PWgCXiE4jpveY8Gt6Ri442Xse/V4pW8dIIt0rYhEr1MvgcBjN1NjnYOg1nzzgbO05/hFWrJmB3Xs2puZ3t0bVBTSqpFKGry6j/2ZldvoX/7lX6hVq1a2IBFApWXLliwADEEgbqY+tOUBYuAkGFTt37+fmjdvTgMGDGCUGbc09GjX8QO4o39wkpvOa6cj2BRZwmBJdBogxPmDNYCA6R15CwDoCJTDgDyWJkfBfcvL+yrBXQrGqJIGLR5BbJjbGTUPU3u9hAbMUgCKnfS6bi8rm+jjqJ0kac3wcU9Rw0ZN6cjR4/SXv/yFlX61q4FBKwJHGwFD6Hh40QL4kGKtIdslMyfPA8uXHzjzXoG709x0vDu0eWhhonZ6sIDWzYERvkMAH0zvyDgYZNO7Wn/lGLhzs/z6XSeiAiwqukGDv6dGLVaABdngzAa2QSvfevAsff5vf6YOHTrQ3Xf/irr0eMARv7qRQYI8oQ06Vvz6LMymA0fSqGXLVrRs2bJq7+iLL0ooecAAGnDwi2rrzf6Br1H68SD6k5ugkKjDycpEZu85lo/zmjPvNrg7zU1HWxG10wWYS/s4pWVgEoJdoamjNkAsmN7V+knd4A4wQDYeJaEpreMBdXoi5GGeh/aOCmvQ5h8bP91QIZY1Lx+le+6pwQLP+AtDYBOS5bx29AQNHjHOVutAdXCPnj62cj9ZYhsG8G2mUHXo/oK+KEmmAQOq/PR2gTtk8ctf/pLS0tKqvT+MYKHFo6awF4UN1BpmGLahreIDdJsz7xa4O81Nh/xE7XQB6kr4w9chaBKmd7glYXpHKuGwTLrBHSCAj5ULTc/88vVfR9XaK4FPFoUO7V1qsocJP9q+fP3Wl/fS2rVrFYPG4POcNWsW/eIXv6D7u3Zj9d/5cbbMGXBPolWy5+Dn5tz0Xi2rQJuB+4CD1cD9i4PJFDegIpKfbY+Ls01zRyf48MMP08yZMxXfHy9JiA8AZioRfOf+5+8mZ95JcEfbcbJuOt6MqJ0uAF0Lf6SKS1j7NMfAHYDRq08/02AKbX7Mk3OYNo8APLn//GBaCbVo3ZZGPj7KUE+ck3Oe7rrrl3Rv+y60ZsdRzYEDB+locx4ZH42v/qtf3cO46VmrhzFzPAfuuOQS5fsuSa7czy7NnV/ohx9+oDfffFMR4PGx8AATgDyydMGcKiZ3JeAGZ94JcHeam463IGqnC1DXAnWp6R0uR27Jdfcr9sfVHAN3mILRiaj53KMBpnQ9fOmIsgcvHeeDVg/tvmfvBxiXWylDm5ZoMap74YUXaOXKlbR5z1EL9yhNWlORanbD7lOMEdCpUydWRIAHrpUkSzX3ARTVne4guB85coTJEFxivB+1DwXZukAf8nPuZK33HPTteEdOcObtBHd0IE5y09E5i9rpAtTV+iqY3nnq4LCZ3tX6ON3gDqFhVKQmZPm22UnPmA6QkwI8X8ZAAZx1+I8HDRpEKJJidWSGDrRWrdoEDRuWAkN0uVOrqlV/i4vrRJ0GjqIJE2ZWRaN/UUIHkyXm9gHJ0YEdb8pmcIdG9cmnn9KX//F/0oPDHmcBjA88+Cht25NCJaXXmAzl7036n1c9QhCKCL5T+5Sc24YBop2ceavg7gY3HeZ9UTtdgLq0L5IvI38H3MWIehe5PCL7H93gDmDX0vbkwj9fcNWy2ZsDu3QOkzyAOD6hPm3e/BJ7Kq4hRz6i9hp0JADBr776mmbNW0ADh46kZTqK2iB9bIOBT1Ry0xHlXnIwmUW6owOt+g2gAQD1Eh3BHDaCe1JShYn/0TFPKr4HMBNQwKdefHxEsJ38XXIfFj4kZF3zU2lD7TccG3ugndrBmTcL7mgTTnLT8ZZE7XQB6PK+R/4fVkVEvYPiKxSO6H2bY+COwQA6ESSTkQKz3cuIsu/9wCB2LeT1hlZhZeKBTcOGDaOBDw1hmrw02Q40+2GjnqDERk0oM+cCffzxx7Zy061o7lyjenr2XHrzg3/XVa4WzwOLyLnCm/TSy/tYgR9YROQfFP8PExhSd8Ivj3ccqxxRK23IjWMx2DLLmTcC7rCMwZ0DeilKP2OAb/fEa6ejs0anbdRCyNummMfuwEDa78AEH6aod7Pfm2PgDircXXfdZQrcH3l8At31y1/SiCgap9IAAZx5pG19euZMZs4DQEHTsTp16XI//eqee6h3/yEMLI+dvUg1a9Zk3HSrLgHFezOhucPq8PPf/0kv7dhDXbr3MU37QwIgpApu2rwV5ReWS5GdjAAAIABJREFURAV4dKLSwgoi+E7xTbqy0gxnXg+4u8FNx/cprZ2OZQHQsQvQZt4t2gQyDHKLoR19uisfpg8u4hi440UaMcsDWB4fP5W++vNfWJQ2NBPc3F++/b9o455Tun3h0LInz1xIiQ0bs7zef//73y2LGdoKMl5Bc7FqGdC6GUaJu2PSHxAtov7OSWBlaNGyJRsIncp7x3YLyagJT1GNmjVp/vz5qp0uD75DAB4GGmJyXwIYaOJ70cOZVwN3p7npkAwGDsiWyFkZ0MrMdPzimNgdCKB9oD+BNQd9iki0ZbxP0Q3uqDB27tw5Qx+h3oA6mIaRMnb4iBERAXIYqdWuU4e69R5oGLyYCX3EGOrYsSP17duXFb4xLqKKI3AfyPkOgHdi+uKgJOiumr++Ot8dsQUvvvgivfPe7yi9oNzGcrXKpWfBVJi7eC0VXrtJq15Yw0bQ0TpVWGswyg5LBign2oEd5+SupQYNGpBSnXk5uKNtO81Nl9dOR+cdrR2J9bEL2mrvFvRp7vJD+xBUXGu9gW5wx0vBzmovR7oNfjOY5ZFeVsmMLl9XeLk0Atj5o+G802Ym6TqP/Lz4D6sAAvAeGT6SBYOh0ZhpOOg07777bpbMh9+bm/MPP/o9iy24r1M3T9LqQobIIDh6zHjVdsCtLsh8B7OaCL5zs5VUXQtWJqU68xzcoRHNnj2bGjVqxMrTmvkmqq6mvMRrp6MtYOAnTO/hBG4pNsiXuVKANoJgXWF6V/6WjK51DNzxAuH33rf/INP6Zi54nvHVoU1LARgR2yPHTta875/+n7/TkezXqx0rPY/eZWiiLVu3ZSD56quval5XvgMaHrR3PJ8bEzSqxMSGtPSFTZafXa+M1PaD2wPvDAF4SFIEjvOpU6cUwZ7zT+HSwGDPaZeGG+8jqNeAa4lz5gHuTnLTISN57XRoZfJOXfwPN9BDOz906BAzvwvTu/09i6PgLv14Fy1axPy3T86YXw2kUO/9l7+8O6rWzh8ZWjM6JWjhauCjdxty3k+enkxz5sxhaVkREaw3QO6xxx5j2o5TYAXTO+emD3joEZfL1Sqb56VyBcDjPTw4+BH2TkaOHKnZcQNcDh48GLr8zrz9+mWOtjV+/Hh7GR6Sh0MnjcRH6LSF6T3c4C3t//kyN71jwI/2gUGgmJyRgGvgzl8u5pdLK/jViMxG7vgNGzdpPh1MhgB3PYVopECktQwt9NExU6hlqza0fv16zfvADtz/Lq/mputgjZ0mP/Eke84JT5l3Q2g9s9ntAPSuPftRk6ZNCVr5O++8Q++++64msEvfPTR4zlEFEIgp+BKQ1043UmBK2jbEcuwOBtAm4JbZvXu3yJPh0ievG9yRLADZgOz6AGGyH/HYY3Tg8Andj/rbjz+3RWuPBm5Ia/vwsBEMXFFoRc0HCYBHQg8I0MoE7X/NmjUEbvrbv/ua5eK3yzoR7TmNrIcbZdLTz9LYiVNp+8t7CPx/fKSfffYZ+y1fvpxSUlIMtwtOccHHjspeeq0mVmQtjrVXAmi7GKwh6h0VB4XpPXbB2Wy/D4sdrDiw5ojBvL3fn9bZdIM7Xgw6dbMvOdpxPXv2ZJG6WjeK7Vu27zRdiMYIoME6MP6pJJo2fTpdulTIkngomeAxQIE1AS4DMxO46bPnLaD2nbuZ5qYbeS6j+yIBUe06demee+4hsCU4oEvnTZs2ZVX3or1frfUABKQ25sF3IpjGTEty9xh57XTkPNB6z2J7eIAf3zQGezzWRpje3f0++dU8B3dQ1OAD1Jqg2QFIERBnFKTM7g/f8pCRE1msAPLZKwE8guu6d++udfuV2+HzvO++9iyf/ekC4yVxzT6L3uOWrt9Drdt2oBEjRtD169cZNeWjjz5SBHaAvFnNXd7Z8+A7aIHwxSnJulKIYsF1CeD7g4UFNMdjx46RML2HB6zl32q0/7wOBaxxGPAJlozrn2m1C3oO7jDrASS0JnQuQx99zBXNXQkIN+09TcNHT2KgN3TYsMo0nLgv+N6hxUebAOjY/snnf6bMwjcd56Yr3b/aOpjeEfuw/cAJik9IIATI4eOUauh8+f3336+27dNPP7VdawO4I/gObiDITkzeSUBeOx00x2idu1gfPsDnmSrxvYoKkt59p0pXNgTuyBhkdzYpmHAQyKZljkXHkfTsUte09mhguOWVdBoweCQNfHgY3bx5i2mYECKL5FcA+Pdv/5ZtQ1pYBO9FO69X6x+bMJ1+8Ytf0KRJkxTBnIM6n69du5a6detWuS+WtTLYme30kS0NHQa0RbiFRJYqpU/YmXUYVMFdAtnDbypM7+EDbrXvlrvTeI0JYWlz5ju0clbd4I6OFUFQyPELjcquZBRoJAkJCUz7jfYg0I4TExOpe/cejDO/ZM0ORc68mwAJbXfO4vXUuElTBt5169ZlCW7QyJFBrkWLlrR+617KuvqR7wB9wrRk6jvgYTr82jFmVkcHHs30jk79wQcfZM+IZfDupeDeunVrSz53tQ6Eb4O2iHgP+OVxD2gPYrJfApCrtHY6rGr8HYi5AHe0AanpHW4aYXq3/zu064y6wZ1fECCPyHnk/IUmbweXFQOGbdu28UtEzKHV9+nTp7Is6axZs5gffODg4b4ATgTgzUxewfjyp06lMuAEfx8+ezcHHGrXwr2guM793XsxoH722WcrtW+ulfM5TO8AfFDdEEi3ePFi9p6xHcsIouP7FhcXu1bFiwfqoL2g1reWtSeiIYkVihKAHCFPDJ7QIQjTuwBy6WAOA2pYb9AnCNO74ifky5WGwV36FKCKAdwRFYmcwOh8pY3CyPLbb7/N/NJyugQi0aFNRDvXtTfeotb33seqtnlt9sb1ZyxYyfzXE6cvYKl3AahqoOv0NtDqWrXtwAqKoAOHhg7w5uAsn2N77dq1GYDDLC7fDsCXrgfNxQkWRbT3jfXobDIyMioLj4hoXOlXqX9ZXjvdbpeb2jsU2/w/gMAgD64ZDKZhxRHlnfV/W37Y0xK48wfg+aMRJYmO3mwkLTjU8F1v2bKFnbp58+bs/9atW6OCOzoJ8KzHjBlLe189Ttmlv2H1yWE2dxo41c6POvNtO9zP7h/me7V9ndg2/qn59MyytfTCmvU0dOhQNviSAzX/D+0cpvfNmzczMAd48m3yOUbvUnC3SoWz2smjIh3n0YrgO/5FRp9LLW+idrr/Adbq92HmeHzfYETgWxc5KKJ/S37fYgu4Sx8SmjdMN4ieNBOIg8EB9/UBtHEOIw0U+9eLj6caNWvZns3ODAhDc4dJ/J4atahBwyYEc72TAw8MKmrWqsW072h+dDlgP//881S/fn1mhpdvk/5HdT1o9Qiq4+tnzpzJipMYeUdO7IsBJQ++g9tIBN9Jv8qKrIpOxMw48S7FOd0fdHBrGAAdMVXIZSCmYEvAdnDn4kBgGUAaJh2Ydtz244F6dv2Nctr1ygnq3X+w50liAPAw2Xfs2ptZFmC2R5IYMwMG+THLNu5j3PQnn5xCV66UshG3mumdA7PWHC6XUaNGsUx82FfJpO8EFc5K5452hs4J7Q4dVtgDfrjrTNROdx8wrbRjt47F9wIQ4HEswvTOESz4c8fAnYsGEbg8+QU0K66Vu9V4ocmj0EuNmjXpcFqhLWAqB1cz/7v2rqjf3rJNe1OBdxgswNy/eXcKM/3jGc0COkAcgXIcwLnZHRo9wB3xFNEGAkhAhLKibr1PvdeB/xhZsjhVJ0ydFqwWsKDZGfSqV+5iv2AMItAPc0sXYpoEA4UjVuzMHQd3qag4dxYdLgKivAjgeXrWHAaGeuvMmwFuvccg2A3JY6DB16mXwGrOa+WVh0l/yMhJ9K+/+AWjoEUDXSPreQQ82A8wu8NEr/d4r33uWmAC7R0DPJgb09PTVesFSNtqEJd57Aui3uHesouuqiVjsT0YgI7+Fv0uvgVYU0WMShC/cv337Cq489vi1BuYguzkzOvtZHDdF15YzTjzG3cdM53SdsWLB6h5qzY0eMQ4y350pNVt0rwV88sj6l5usp+RvJL69HuYDqUco4ULF7IPVA8AQ/vmgXLR9odmjkQ0CKzDh6/HV499AJyIrXA7Wl7ve5bvh+A7DGDwiyWfoqidHgxwlbdHt/5zVxUGfWDMhMmKxTEnjHNPwJ0LWhq5axdn3ugHg9zoMNnf1/F+XSZ7aM5T5y6loqvl9B9//SvTCpG05os/f0vnr3+s6xxamj20+V/cdRcDegTI9ew7gGWRg/k7GkDz9aCqJScn04QJE+jzzz9nwW9a4M6P1TvH+WrVqkWdO3f2nTlez/svKiqqjAYOskmSB6+K2ukC3JXaPUzvYERgwI4gU2F658gTjrmn4C4VMQ/8sYMzr9TQ9ay7/sabVDc+gVBnPlrd+IFDHqM6deoomrT69O3LAtvgD9cCcK3t0N7HTplLjRs3YbkEANpq4MurtkFTRzEefNDYH8sAerVj9WyDdo6B0G9/+1tWJW/16tWW8hroeR9O78ODiaDRlJWVBSL4DqZ3xLBYpZ06LVtxfm8GHNz0DtcnTO/IZSCmcErAN+DOxc/9hl51XoiyBy98w0svK3Lm8y+/EdVviwFK/wGDog4MtABdvn32orUsPgDm72gAjOC3Nm3asP0AVvL9uBlavt7I/3nz5tFdd91FY8eODaSmrgU06BDhmuAlKv1otuTsE95pW0kYpSUPsd0bYLYid8RXcJaIyN7I0STcc9+Bu/R1cLOjWc68lY8Fx6IDbdioEePMwzw+Z9Fq+vF//kd6i4rLl3/9mWXNHUC/Yc+pShqaFIyhxUNDxweNZfDOo2n2GBjo8aFLz49joO23b9+e4Ke2KscgHc+D7/yi9SA2AJ22V99AkN5dGO8V3ydM72BGeJXf4YcffqBf33yLfv75Z8X+UKz0RgK+BncuEq61IBDOK8789h07K7Vjfl/R5qj9Dr+5XBM3+h/+/VcOHY7QxpFNDlHq3BQvBWa+DEDnBV+gvfP1anNorx988AGLKh83bhzjvoaxw8Qzc38lZIdBppuTlD6KTGGwzoT1PYjnjrQiwNIE5gesOJh7aXr/81++pgsF6ZRWtIkKinIJQC8mf0ggEODORSXt9NzmzHO+vJ5iJfDJIxOdUTCX779swz5Fszx46UrADp47tHj4xwHu0O6V9pMDPDR10N9q1qzJ8vuLDrWqQ0XwHeQJN5HTwXdwB8Ck6tUgVrz3qvfuR1nAUoe2iPaBZT19Ee87nZh/8OFtyik4RievzqWT12ZSaumzDOgB+GLyXgKBAnepuKSceYxeMZp1+oPUm+3s499/YpkaB6B/ZuVWFpUuN7kDsJX88EgPC41ej6YOLf3xxx9nNDkEaCHVL9wQ5X37Unn37nRj+fIKeaalVSyfOOG4fJ1+f1bOD9ngY0Hwnd0dK2/LCIIEDxnv1sq9imP9DdJG3w8G8/imYXqHFcnr1Mowv5ddL6GMol0M1AHslb+rcxngf/jRb6TdtVj2QAKBBXcuK4xe0dliNItRLZaNfjx69l+0aBE99NBD/LKqcwS2yXnqcq1cz3/kpT967FiESZ1HwAOgUVsd/+XauNr/Tz75hBo3bswCByGzas+/ejXdmDWLbuzaxdaXT5vGwL580KCK/TZupPL4eGL/i4roBioBHjhQ/Rw3YqtzlcpHahKF6R4uIzMTrFDwkQLQ3bZCSZ9HLPuzrfIgT5jeAe4I1vXDBLM7zO9pJWuqAF0K7neWs4v30+vlZfTPf/7TD7cdynsIPLjztyZNuekE7xc15O+++25+OdV5r1696aFHx1o2y4MON3xEZFpZBLvhfmB2nzp1qqIWLwd3ZKEDN33KlCnWgBiAjnSz8+dXAHtKCpXfdReVx8VVgTzA3mDBnyCCDFw1CHRDwJvebF88gRMsADgOA8EgPru4Z2cGBdwNBGUF9EyvTe/Sju7bb79lZneY3ys1dQVg59vSLq+jwuI8+vHHH6WnEcsuSSBmwF0qL2nGLuQXt4M2hI8O5nA9EwB31QtrqEu3nqzOvFktfsGKrYo+dzlwR/sPU96rr77KuOnbtm0jR7npAHRo8Xl5VN6iRQXYc9N+SkpMAxgC3qB9q5lNEfTEg6C8Sr0sANkZQLZDrtDOoZTwAE6vTe/yfu6TTz+inPzUSv86B3CteeqVRXQhP4MwMBCTuxKISXDnIoSPHP5LBEMh6thsnXn+8ULT0oqcxki7oKCAgRn82ODMT5s5l3HmkTfeSIKbpRv2EmrcG6WyAeyffPJJxk2HO4HfvydzgD00+7vuqtD4Y9hkD5cQ3BzQyhHHgPYH0ztAH3SlsNEKPWlvAWpfUDp4fgWAO5QSv00wq8O8nlV0QJe2rgj28MPnpxIGCGJyTwIxDe5SMYIvzKsgwZxqJmgJ1DL4uNUmmMsTEhIUAbV5i5aVnHk9PndQ4c6lZ+nyp+N5YK7HtUtLSxWv71lny/3yeXnMXF8ZsIf1AeqM9d4rOm1QNpEUBwNCp+JA9N6P2M9fGjs3vfs9MyLM6TCrw7yuCNoqJnml/TFAKH/ruvDDqwGIjdtCA+5cZqAbIRAKPi08vBGfJ7QyraC6J554QrUEKjLgpWdm0/FzF2nS9GRVPvyG3aeYWV4eLS81w3Nu+pEjR5iWv3XrVv8D5vz5FRH5NgXipS/qzOQUFxdnbj56Z4XMdo7WfTzy6o9etJPS0/0FHALI/fs+oFT42fTO+0jMmX89P4NgVlcCarPrzl1+kYpL8umnn36SXk4sOyCB0IE7lyGilcFbRrQyTKYAfL0dI/jkcvM8AqreffddevPNN3WdB6N31GCvF59Au1IyFIPvePpZJXCHn5dz0xFXoPfefbff1q1U3qgR3TA9KEmnRZ05qHPATacbN3bSaBnYd16E9TcoPX0nja48Jo5G76wOCEqDBb5P+s7R1LnaeTvTIgHwwW1/DluOYMXB98lTG/vR9M77RD4361/XC/ipJUsoryBLVKfjAndoHlpwl8oTwU4wo/KMT1qceZRHhZY4evRodpoVK1aw/9DazYLn5i3bWSU4aZ15UOE2v/RSpVmec9OPHz9O169fZwln7AgWNHvPthxXVESMbmc2b336ogqwHb2T0qUddYQWPpp2Srff4IMC+fobdEN+bOdF1c4dAf6y7bbIpdq9Vh98iPP7Xx6I74GlD/E+cJnpzZEh7ZfcXoZ/HWZzS/51vab60iTKLThDf/jsE7cfMzTXE+AuedVGOPP4cPFDR4uROYLnrHa6cBXMnDWLsgvKaN/xCzRnyXpKSl7AAupu3brFqGwI0IN5z+q1fHl8WhpLonNDzr1XAzoAsRzYb9ygnaO5Nn9nzk3vknMxkFZYLz+Wa/xcZhHgHie0dy6bMM8B4tz0jvgeuXVP0tX4bhFmcpjLYTbXq4Fb3q9sNmUXvUpv3ywXfngHWoQAdwWhOs2Z19MBonb7r371K2YRmDFjRmyCuQRomUyQIW/QICqvWbOCViffrvB/52gFzVvBJM/N6tVkv3N0hEn+BrcEVJreI4FbgLv/Nedq71mh3di5nQdQwvIH914QTO/Sbo/FIRVkEczllgFbr+Yu2e9c8Ut0paxQFJ6RvhQblgW4awjRCc683o4FncaOHTvCAex2dsBys3qc0gBAGaAigDvC5M7N+RLLQMQ+yufW+97FfsGQH0zvoNjC9M6pjxrdie82wywO8/jJ0iRPgJ0PJlIvL6WLBTn0/fff+05GQb0hAe4635zdnHnRgWt04Iio79SJbiAjnkHgl5vVYbbXd45I4NY2yesfOOi7Bw25GJSFuKa98uSmd2QmhOkdFNsgTvCvwxwOs/jJstmeAjsH+FNXF1Bu/ln696++DKJIfXfPAtxNvBI7OPOi09XodO8kv7mBXPeGAC0ySl7RJK90TjWTfPpOWjS6OuWu8+hFtFNEyht8PxrvXem9+GAdKLMIukVcjJWaAia6G9sPqfSvF7/kC1Dn4M7m8MNfOkLvvveO7c8dthMKcLfwxq1w5o0BVjA7RMvPiMBBo4lu7DTJV/rdJSZ4BM/tTK8WPW/5OX0AXuIZlL8xUE5hegdlFqZ3UGiDPHntX68G5BK/u3z9uaItVFIq/PBW2poAdyvSu3OsFc686FSVO9VKuSB9Ls9RrwMEbTfJq2nzOu6n8jnEvoHR8LnpHYCODINBNb3LuzZUdMvKzmJlhVHfINrvdPEqVzT6rIKUqPfA763s2lX5Y4j/OiUgwF2noPTuZpQzLzp/dXAvf+wxKm/bVicwyE3ykZHuUeUdFcS1/fBRzykAXed7U28DbskXpnd0iNz0Di03bFNB4QXbs9LJtXL+P61wM733/s2widi15xXg7pCojXDm3eq8AnkdcN71+t3lJnkDUewRUfKSILyIbQbOG0iZh2xQAh86rzuBrJVBN72b7dLADMouOOqK1s4Avmw25eRmiFS0Zl+YxnEC3DUEZHWzHzjzgQcYnamB5SZ5eaR7dDlEaufVgvCiavX+0DijP5e4v2iygekdpl+Y3hEoh/TRYZ/c1NqF9u58axPg7ryMK6/gJWc+Wifn+/W7dlXUhtcEeAsmebnGH8GLjwR//QMHAbB+amMwvcOPDtN7YWGhyG9+p3dyXWvnwXRCe6/EB7sXBLjbLVEd55Nz5hGR66cO0Ff3AnBHLXgNvrsV07lc41fixUecP2IA4A6Iv/HGG5RfcIFKrlwWbcaA+wCmdxSIgqZ++/bt0Jreo3VPXmjtQnuP9jbsWS/A3R45mj4LInGhSaDTgZkQ5kJfgauBDtSx+9YC9p13isdUo66N1lGtLZ12KpWLVchVH5mWNk4xp71jMrhxgxULyslNp7RLmyn9QgpdKrwo2opK+0QBKHxTSAsL0zuCXcUUKQHPtHahvUe+DBvXCHC3UZhWToXIXJgJYS4E2BupM+8koHh+btDgotR9j9C4q4E756YrZZCLNLMr1oKXBNXdqKwix88rmVfbzxkNHqmIs86nVcv/fbZgB53PyxQDQhnAc9P73r172TeF4FYxRZeAl1q70N6jvxerWwS4W5WgzccjUhdmQ2jyMCPm5uaGVztDOdi4OP3R8rJO3vOBiU33U1R8iTJzTyjm/z5TvJqyc8+SVpniWJGF2nPgWxGmd2Mdkudau9Dejb0wA3sLcDcgLLd3hRkxPT2dmRVRyz10HTjM8bNm0Q3NYDpntGU1IHFjG/zrefnnKT1/v2r+79TSZykrNzWUfnh8E/wbwVyY3o31Un7Q2oX2buyd6d1bgLteSXm4H8yKZWVlzGSPGvJFGj5oN4DHlWukpITWaoHYi/N5GZRWuEkf7/jq3FD54S9fvlwZ9Y5lYXo33kH5RmsX2rvxl6fjCAHuOoTkl104Z/7w4cN06NAhykLudZtMv747z6JFFVHysfp8Ks+FgVzW+bOEMphcq9E75354aP2+e6cqz6z3XnNycpjp/ZVXXmHuK3wTYjInAT9p7bx9i6x15t6l0lEC3JWkEoB1GHWD3rNz504WCYyAK70dZBD2K+/bl27Mnx9Tz6RH7pdLiikz9xSh/CXv8IzOK/zw51h0vZ5r+n0fmN7hlkLUO8BdmN6td1C+09qF9m79pcrOIMBdJpCg/QVnHtWqdu/ezapXCc58cP3v4K+n59lTXzv1yiLKPH+GSktLAztAgrkdbigwSGDNEKZ3+3onP2rtfBArtHd73rMAd3vk6IuzxAJnvnzyZCqvWTOwgGRGC2b+9QuZjL/OOzhb5lfnUkbucSosKgiUPKGdw/UE0/uHH35IwvRub/fiW61daO+2vmgB7raK0x8nCyxn/upVKm/Rgm5s3BgoMDID6PwYmJxBZTPjX9c7AEgv2Eu5F7PJz354uJVgeoebCeD+1Vdf+eNjisG78LPWztu00N6tNzwB7tZl6NszBIozj+DAsLAA7gSWIYUsKGygsvFOzan5maK1lJ3rPz88mB8wvSPhDEzvcDOJyTkJ+F5rF9q7bS9fgLttovT3ifzAmUdtdq6xVpufOFFhig9RAB1SxyKF7Mmrcx0Hdj5g8JMfHto5GB8wvwvTu3t9RxC0dt5ehfZurV0IcLcmv8Ad7RlnfuvWimxzW7dGAvz8+cSAP8Yi/qsNYO5o6xX89UwCZY13Yq7O7/jhkfVO6f6cXAfTe1paWqXpHVqkmNyTANx1yLWv9TtdtNqVtplxab/mvVzIy3VPQDF2JQHuMfZC9T6O25z58rZtGbiXd+9eBSppaXTjxImq/zbwoJ0EJ6vnvn79OvOvg6rmKqBzU6dkjqx3yH7nhh+em97B6MDgRpje9X6l7u73z3/+k85fyFJMc+xEez1dvIquvV7q7kOG6GoC3EP0sqM9KjQoRznzd7R25Ilnv2nTWNBc5XKMgzoGBaCkgZrmhn9db0eM7HeoModBh9WBi9rxML+Doy6C5KJ9gf5Y/+kfPqGMwn2uDjxz8tLo+++/94cAYuwuBLjH2Au18jjQqI4ePUpbt24lO5PiVGrtHNxRDGbu3NAUhAEVDZQ0N/3regE+tWQJqzZn5/tWAnoUdYF/HT9QNsXkLwm4rbXz9im0d+fagQB352QbmDMD1GEuhdkUkcuXLtnoj5Vr7RKAB6ddCQhiZR1M3qCggYrGOzNfzkuTWNU5N/zwMNEfO3aMVT28efOm4LD7pJfwQmvn34LQ3p1pBALcnZGrL8+KYLojR47QH//4R3Z/MMcjahncYgQ6OaG9KWntleZ5AD188DHqd8/Lu6AZMJRx/rgrwI90thmZ6Zr3g1robgyucB10Pjz7nPDDe9dleKW1c3AXUfHOvHsB7s7I1VdnRWc9fcZMiq+fSA+Nmk5Nmrehlm3a0uzZsxm4O9aZq2ntUg0ey4MGha60a1HRJTqXv9sVcEdHmnE+lXHJHXvfJmInpHnjEfeBiG4xuSsBL7V2BvBlsyknN4N++ukndx88xq8mwD1GX/Df/vY32r5jBzVt1oI69ehPU57bRTvPf0p7C/60FLnHAAAgAElEQVSN/ZbsukC9HhpFdesl0MxZs1lAnd2dvqrW3qgRlQ8dWlEc5sABuhECGpxUvjDZZ2afcy0yGZ0o/Ju5ef6sJAi3EKoc7tu3j9VnF8F37nRMXmvtQnt37j0LcHdOtp6cGR3kkGHDmZb+6BPP0Lrj5ZWAzoFdOn/x9C0aMXUJ1alXnx4eMoxS7KqhLtXaa9YkVuVt1iy6sWtX6DLRSUGdL7uttfNO1I/aO5cJn0uD75DgRkzOScBzrZ3TM4X2bvtLFuBuu0jdPyF86EueW0r1GzSkB4aMpaRNqaqALgV36fKMFQepTYdu1LR5K1q9erU1Hzzyw+MXyzXnTZihAWBeaO0c3P2svXNw53POj4c2j+A7pFMWk70SyM3LtlRemLcrO+bC927vuxXgbq88o54NAAxh29VBITgO5+vRqy81a9WWxs1bT9DCpWBtdvmFw1fpgWETmcl+4qQnmLmUd7hibr2krFdaO++A/ay9I6jz/IVMgi+etzUefCfyz0ftXkxt8F2eeaG9m3qP0Q4S4B5NMjath5mcA/CA4U9QQoNEWrRkqemEHrdu3aoMjsP54Ds3C+Jax23N+IDGz1tP9Rs2oV59+rHIZt7hirk5kPdSa+fgfrpoLctO57d3eLmkmFHyUCEPBXVQWEd6jzz4DuwOEXxnvYPyY555ob1bf6/8DALcuSRsnCOYbdULqyvN5FIABmBOSNpADZs0Z75xaCVakzQ47r4uvSKC47RA2o7tMPV37jWIEhs2poWLFhNMptKOVyzrA3uvtXYG8GWzKTM7zfHMdEbaRH7BBUrPe5VOls2uYA9cnUuZF45FrUXPg+/OnDljeqCs9d3F8nbfae3C9257cxPgbqNI0ZlNnPwkC2YbPWuVppkcgNntgcEson3f/v30X//1AZUcTKYBA+IoLq7q96//+q/UrPvjNGXbneC4I6eo3/BTjmnsaoMBBOgNHjuL6tRLoOEjRjJ+vJFOPMz7+kFr59r7mUubqOBSnucDNFZI50ImpV3arEgJ1KpFDw2eZ74TwXf6OzM/au28bQrtXf97VNtTgLuadHRsgw8diWHatL2PUc4QlKYGjkrbAJj9B7Snf5UCeq261HXIWJq99gjtPXKKxravAnsAf6t5rxu+jtK1za4DrQ70usbNW1P7jl1oI4LnTAaYheU4X2jtEg3Ja+0d9duzzp8lmOF5x64011OLXgTf6eis7uziW61d0jYF713/+4y2pwD3aJLRWA8ebtL8BcyHjsQwCEIzC5R7N02trqnXbUlNWndk4Ck9Z9JwDvA9aeyRCr66dLtXy1LO/NSnpjvCmQ/6AMBPWjsHUC+19wr/+indkdp6a9GL4DuNjouI/Ky187YptHft96i1hwB3LQnJtnMeOXzmk57ZQvChWwPV12VaeQVwAzC7DxpFteo1oKGTnrlj4j9F/aDdt99Aa+4ko7F2bXsHCIjWHzVzZSVn/gCS0whtnsnAV1q7REPyQnu/VHixun+d34/W/E4tehTi0WpXIvhO1nHd+et7rZ23ARE5r/wCDawV4K5DWNKANis8cmUgvgPYEpO81OTOk8wA5Ls/OJpG9fHeJK/8HNUHCnBP3Hd/H8aZX758uTXOfMAHCH7U2rmG5Kb2zvzreZl0tmCHqhme31u0uZYfXg78IviuqpMLgtbO37vQ3qvem5klAe4qUuO0s0ZNWpCebG96QC9yH7nmDtP7VEpSMLsDMJs2TKC767dlVgNpOtnI81YHW6+2w10xcORTjDM/esy4UHLmfam1SzQkN7R3aNLZuWfpTPFqS8DOO349fng5yIc9+A55+zMyMlR/cH9wGbs1P31pY9R7upCXq9JDi01qEhDgLpMOAuQgFHDT3aKdrZnXs5rPvSJSXhngAdIAzD7DJjKTff/HpmmmmPUK2KXXhfsCbgzOmUfNeHnnG4v//ay1887bae0dfHXw1lNLn7UVOABEWeeNVzMUwXfVO73vv/+e8i/lUlrxBlvfD29feuZZRQfo9fIyQq57MdkjAQHuEjlOmfIU1Y1PIKeTw0hBjy9XBcvxoDnMe1K/TdGj4nmSmfjEZtSh50MVkfU+9MXzZ+RzRgHsN4xx5pPmJ8c0Z97XWrsL2vulwjxKv5BCJ6/OdQY4LNSilwbfXb58mcJYdvaTTz+i3Pyztg+89AC6fJ+0y+uosDiPfvzxR0mvLBbNSkCA+x3JQRCPPPIINWvWjBo1bkqDRs20GChn1Cz+OiUNV9Lg9fnYAZhdHniUAPSPP73ShkA/o/dvfH9QAIdNWlDJmT8RY3Xdg6C18w7Wbu0dz557MZvSC1woaVs2m9Lz97Ose7iuUQsQXAbp6enEM98hxibWp59//pmuXrtM0JgrEwfxwZ6Hc1hjLl7KFKV/bWiAAtyJWIarDh06VOZ9R+cwbtw4qlGjBnXuM5hWHCx2DeiVTfRx1Epn0hoAJqLrEYDXZ+gkev5AkWv3zjVzo3POmW/epgPjzKNojdEO2o/7B0Jr5x25jVnrrl+/Ttm55wh+cT54cGOeVriJcnLTLWXeQ/DdwYMHCZnvvvjiCxu6WP+d4ttvv6ULF7MotXi5q+9HdxsoTaLcgjP0h88+8Z/wAnRHoQd3+NgHDx5MCJ6TTxjBr1y5kurUqUMt7+1ATyza4QpQrtk0lVpJoud5trp+myK1Y/m+rYZX0OQ4YIIv37J99wjOvFEAdmt/UAB50Rpw5oOc5jY3LydqoFBlYFP2KVc6WPi7K6+pElRVUlJiaWBVWlpKmefPkBeBWQCP1JIlpvzw8sEhgu9ee+01lv0uljLfffDhbcrJT6WTpUmutDvdgM4HmXxeNpuyi16lt2+WCz+8HJh0/g89uC9btozAx9aaIKjOnTtTQv0G1PfRJ2ibJX67jvSxssQ2DOBl/PZoZnw5Dx6ACS2+Omc+cqDgFoBrXQfWB7gY8MyIsJd3vLHy323N3ulqcOCfZ+Qed86/zjt+rfkdP3zx5UuW2w4Pvtu9e3egy87+9NNPVHQ5nzKKdvkb1GXv9lzxS1Rckk+4fzEZk0CowT0/P5/Gjx9vSGIYxU+dOpVq1qzJeNyLXs42rs0z4J5KSRrBbxFBdlJwP7KBmep5Mps1mzZU0/aVtHxw5uGP55z5Z7dlGL93jXvWAm617Ui1i8BAxA0gsh5lbJG/PlbAXPocXvjjnarljme5kA//+l7/AAf88BdfIRSkkcrd7DJK0aKzRNnZoAXf/fkvX1NuXiazapjWpGWg6+Z5YI3JK8gSfnhDSEWsvc6ePTviqDi+Bh8DzNaxNiF9bPfu3Ql10c1MOG7btm3UoEEDlqjlsWnLdQMlB20lAK4GfnLtXcPvXuWv105PC878vV0eoMRm93rKmUfEPwYcAHRo6wgM5DJA7vpYBXe3tXbeGdutvcO/Dj93WpF3NCr+bEpzFKRBfXgk0DEL7NLjghR8B1oZzNo5Bce8t6ZYHRwIP7xhmAqt5o4BCz5aOyZYAAYOGkS1a9emHg+NofUn3qwEKA5UVXNp0hp1EOaDgAqfu/q+OH8luEs1fA1NG5x5cOWhzbvJmUegn9RVAFN8lYwqXAaxCu5eaO0c+OzU3qHNgmcOzYqf349zVh/+/FlCoRopUFtd9nvw3c2bv9YVZ6EnFoPvs3LpUnrqqad0/w4dOmT7PSAgUEzaEggluL/44ouEn90TrAFz5syhWrVqU8t2nWnexpMRgLUX5vRqwXI9qd+8U7RGmpEOVeCktLj2U3UUiuGDBu1BgBxE8Z8nmYEGDdP49OcPRN67xkBB6bzydQBsBPjxwjhqWfZiFdy90to58NqhvUMTzszK1Oy4zxQol3Ll92LX/NzFvZr3kpWdaSu488FBrAbfKfWP61eupJVt76ONCQ00f0seH0Xl5eVKpxHrXJBA6MAdH6TTbgZeBhac+YaNm1TjzK+ZN5VaAczvAOWaI6coad5U6tdeznHvSa0A6ipJbKTAWaG1mwN26XkQLFgvPp5ZIQaNeILUwFd6nNoyfP2cntfjwdGEAD+1/fm2WAR3L7V2DqR2au8c4JTm2efTXYuad+uZlJ6Tr4uV4Ds13BHgriYdf20LFbiD2gY/u5tJKvDhjx07toIz39shzjzzzZsHdgQFtuvSh93jlClTKmmBh15NoTbtu5guZ8sq2z04mpn8R0xdcqeynf4o/VgEd6+1dg7wdmjvHNSU5sj+ln7hsKvmeqefSek5ldYFOfhOC54EuGtJyD/bQwXudvrZjb5CDChWrFjBOPMt2rS3jzMPTnx7eR7612nsHb4714KV5ggCbN6qLQsKRHCg0qDnj3/8I3Xo1JWmLd2tS9vm/HoE6sH8jsA9pWvrWRdr4O4HrZ2Du9Oarptau1vPpATkauuCFHyntz8T4K5XUt7vFxpwB5cdnHY/TBA648wn1LfGmY+S7IYF4EWJrEewH4L+6tarx4IAERSkNcHN8NT0mdRv6NioaW0REPfgmDlMS0egHAL19AC42j6xBu5+0do5GGZkn7GUzS0asHmhtVc+0/lU2wPnoj2nkfU8+O7kyZOBznwnwF2rt/TP9lCA+8WLF5mfHSDlpwmceZjBwZmHWdwQZ15Ok6sWpBdHcpodgvsQ5FevXjwL+oNGbnRKz8ykjl17VfOZg7rGuengpSMwTw2wjWyLJXD3k9bOgdDufPIc7LzQ2vkzOW2R4M9odg5mDTLfvfLKKxTEzHcC3I32mt7tH9PgjtHykGHDKb5+A2YOh1lcyfTsnfgrrizlzDdu2pyMcOa1wBIFcHBOBPcdOXLENK+fywiDgr79B1G/RyYybjqAXcpN17ofI9v9Bu6IEEebOnz4MIvMhtlVbyfvN62dgaGN+eS5HLzU2jnA+8X3zmWiNEciHBRKQua7t956q7KuBf/O/DoX4O7XNxN5XzEH7gDv7Tt2UNNmLeiBIWMrgQfFXzr3fpgFjSHADR+cHyd0jpwz333ACA3OvHJwWsWzDq58VpzTjgnAPnvOHGZp6NRzoON15P0C7pAfCons2rWLQHsC5bGwsJBlK4OZFR21UgfO1/lRa+dAaLf27qXWzp/J79o7bxeYI/gObYtnvjObVMuO71vPOQS465GSP/aJGXBH4ZfpM2ZSoyYt6NEnnlEFHmizoKhxbdZv5no0DQDIs88+yzjzCMBT5MzLeOcobIN9UejGTisFtNWePXsxP33vIRMs5tVXHpAoafRegztMqMeOHaN9+/YpaldoN7dv32YmViTrgJyUMqH5UmvnGcNs1N4xCHI7Qp4DunweBO1dCvI8+G7Pnj1sAOlHCyP6JQHu/gBuPXcRaHBH54oH6Ni5K93XpRerfGaEl8390Eg6g+QzAFS/TfwZMRBpkNiwGmcegIgCNuCmJyTUZ0F6kIcdEzoXRNBjoNCsZVuauOAl23zpSkCutM4LcAc4IxsXAB1a+e9//3td4vzmm29YpwztXqrN+1lr54Bol/buB62dP1OQtHcpyGMZg0SUnfVj8J0Ad13dgS92CiS4A4QXLVlKCQ0SacDwJyzXLOcR5EgfC5M4NDY/TrBOcM58xx4DqW2n7sxEjqA8u4JzcA2cD7Xs23ftp6uWPYLoUITGyMBKCczl69wEd2id+BgAzjC5f/fdd6aagFSbR+BUVlYmncvf7SrfmwOc7rkN2ruftHb+3EHT3uUg78fgOwHuproFTw4KFLijsSNArmGT5jQhaYOtkdkcWBDM1rR5q0rutx99YBjctGzZkvnp7Lg/bh1oc++9zDqAHPNcHmpz0N+69R1MtWrXof4DH6KatetQr0EjbHsvboA7fOhHjx5lmvrNmzdtDWz6/PPPKT0zzf+1s6/NJKvau5+0dg7uQdbepUDvp+A7Ae6e4LSpi/oe3AFePEAOwOFUZLYcxHjWNtDU7NSMTb0l2UF6a9DLDov4K/frz17zmi5Qh6xQ+KVL994EjY1PGCRgAAa6nFIhGLmM1f7DCgDevBNV4eDf5KZ3BDOZoQXyZ1abf/qHTyijcJ+/tXYbfO9+1No5wAdde5eCvB+C7wS4q33x/trmW3DnAXLx9RM1A+TUQMLqNqd82mabAT52q7nx0RlbichHgpquPfpEpRUCLDt362043SzeFQYFwyYtoPoNmzBgh/9R2sFZWcZzw4+JyGQrpne9767seqlqMZOzed7UP0/PTo16XyUlJYbl7UetnYN7rGjv0nbvZfCdAHe9X7/3+/kS3FevXk21atWixKZt6MUz7+rWJq0CudbxTkWj620GCHIzmxsfFhCAGurPW+XSw4KiFZewb/9+Gjp+ru53B4tMr4dGUWLDxpQ0P5kFp0k7NCvLvGoXguQQ3Q4Lg1cTr7GdnX/UsxrbqaXPUlZuKpVcUafw6ZG5n7V2DvCxpL3L34nbwXcC3L3qOYxf15fgvnbtWho1ahQ9/vjjjArWtnNvY9nbZBQxLdA2ul3OI4eVwY3JTG58aNE8Cx4C8AxlwVOQI8zxYCdoTQDQJs1aqGrvvMxs4+atqVeffrRx40bDWqO8s+P/uekd1CKY3r/44gutW3Z8+w8//ED5l3LpXPFL3pvqr86l9AspdKnwoiWZ+1lr5+Aei9o7b+d8Lg+++8c//uFIexbg7ohYHTmpr8AdPuCcnBx65JFHaPHixfTZZ5/RO++8w3LCx8fHU9MWrWncvA26tUGjoG1mf3DmQVEDVQ3CdEorNFqDHiN65K9HDnlQ5eBeMPN88mMeGjWdZbrT0xqT5i+gSc9sibguzPoDRz5FDRo2odFjxlFaWpolgOEdHOYIPoLpnUe92xFwqOdZtfb5w2efUO7FcwStmYOOH+ZnC3bQ+bxMRX6+VK5Ky0HQ2rmMY1l7l74bHnwHK50Tme8EuGt96f7Z7jm4Y4QJGhdyLSOtJ8B91qxZleAOgOc/mFU7d+lCtevUYcVP7AIsOYCZ+Q/OPBLIgDOP5DMYqNg14eP9/9s71xirqiyP84FMR4dJaxcFQlE+QAVaQd4wQGOEth2QGWxxoAnClCCIPKRB0t08VIjdLU3TYmaExlGQR1VRUEBDFdLAMDaTTjRqd4xtjEk7Mc4kfvKT8ZFATNbkd8ZV7rp1z73nde895951kpt96j5OnbP22vu/13+vR5B9dmj7TZs2ebHpVHsrRWw63vFM6kGOZ555Rr7/wIoucKdC3G1jp3rRCOvWrRPqX7sTU5zz9vb2rpzdUO+lslyCPLf7ncuXL8t/XrogbZ3/Ji9daEoVsCvwHTjzU2lrPySwHWH6IAtWuz5jLVjvbt+p8x2LXAA/qUWugbs7utN9XjFwR9lQOpSPHMucq3L6gbuCPE4/c+fOlauvvlquHzI8NtUcBcz9fkPMPGljNWY+KBD6qUmQfXY3/n3oHcFi0/3uv9j7hCEGXbhAFd4xabrcu3iD5yB3510zvP7Wfo7buo5Fzc3NqaDe3X4kVv7kqaNy8JVNqQR1BT7asPvwFy9elNbWFl/HPKIReL3csbksz37o5I6i99J6pEVIKhRX77L0e5IyMTbYnsJwYj6Jcxi4x5FeeX9bdnBn75M9UJQNpctnLRQDdwX5N998U7Zu3SpQ9v0HNMj0ud9YicVAqhyfEzOP8xpObNBkUVbPfvvs0P90nmauCxqbHve5KScb9GAS7Nu3Xn60YKGXdSupSVGpx6StkqDPFeR77/zlbTl68oDsO/9IWcDNBerI51/vw3d0nooNgOXOzLf/96sEJiEpHavG6wDumvkuavingXuQ0Z+O75QF3AEiqFJodbJ24b1caPAEBXcFeVqs/ylTpvx/UZNxd0YquBIX+Px+jxObm00u6MDKt8/eIzZ942+7aG+//5/k+2Et92nTphXs60J6kPsZkxNbN1ouMy3UuzuUv/zySzl7rkNaO3+dHVDXWPev2+ZTO6X9ZFssK7cS+fTJaw9Tlqs39vcfuskERo3ETVHGkYG7O9rTfV5ScIeWJJ4YCwsnp6ADLwq4K9BDQy1ZssQD+UE33hKo4EqS4FfoWhozj5Mbzm44vfkdUO1Y7eqgh+ymTp3q0f0jJs2o2OIl7J77woULu00sYSdamJ1Dhw510YpBtwT85FrK9z/++GNpP9Eq+19Zm1lgV6v/QOdGaWs/LNDvYfus3Fa73rNZ791BvFi/KQMWxvnOwL2UM0iy1y4JuFNsA+odS519t3yVsgopXhxwV5B/5513BIeu6667Tur61vcouFIIhMvxGTHzOL1RmAUnOHcvDPqeeHYcDZGhxqbfPX91Wa30fHII4y2/fPlywXGuUF/7fYazHWwMC8MLFy5E2tJIdqgUvhoWO4s13WtOoqUi3cIFC2RBwNfK5csT/f88w/ETR0P3XyWsdgV4s97DATzjL4zznYF74XkgTZ8mBu5YmIReAEZMSsWod79Jnff9wJ1c3QreYVro3OnTZ8hVV10lw0ZNDlQMJR+wleI9YuYpAkOhForCYLHfd9990tjY6LEPg4eNTJXD4MpfHpFbhw4vqsPoA/4AYfWAvqJ8KvQ7i5s0Uu9FHz6hL7z33nuyav58eaKuvujrZ4MaZcXSpR7To+OQLTDkWWisJf1Zpax2BXez3sODu+pAEOe7bVu2yOopU2VLff+COrlxQIM88sADQr0GOyojgdjgjsXJBI6FhbUelHpXhcrX+oG7AnpUkCdmfsWKFV72O2LmsZ5LAdhRr9l48wi55ppryl43Pcj9urHpQ4YMKZqh7tlnn/WS5+Tr39z3sByg3rdv3+6BEeVT7RCJAu6u3HBeBdyRa1JjM7fvcv+G6m0+uaui2xJmvUcHeO1P9Caf8x2s4r69e2XZosWydsLEHiAPqD/2/bvlkYcekjMdHa462nmZJRAZ3LGqcMpAAaAjw1LvqkT52mLgriAfp4VhuPmWW7yY+SSTvAQBSvc7T738utzzozXyd9fWy6jvzfZKp7qfV/o8X2w6SWfGjBnTbSvB1VscBkePHl3Uaj99+rRHvbPnB/X+2WefuZep+fO44K4CRK5qzTNmw7Ip+cao33tpiH036z0+uGv/+jnfKcgvXbRI1k67U35y42BZM+teebipyQP1K1euqPpZWyEJhAJ3JglAfMeOHd6kzOSsSpBkGxbco1ryLA6ImSfVLTHz5Uxzu+ZXx2X092Z7oE4IHyBfaSDX/8+9FItNZz8cAIep0QMqnskAfwEWfH46wWdQ7wBNrVPvKrt8bVLg7l6bhZeGosKWwJr49VPY99EFrGalyCvZmvWeHMCjB37Od1988YW0tbTIj1eulEuXLrmqZucVlkAgcGcvWOk9rLYkJ4R8E0hYcI9jwetviZmnlCox8wMarhdi1BXskmopY0qN8oE3DZcbho7yzpO6dhLXYcExccb9Ut9/QKDYdEB68uTJnge/evLj4Z8v8xw6g+5AEWM5GvVefOSXAtz1v2J5wZawUI/rI6NjOA1Wuy4ozHpPFty1jxnHLA7ZhiUSCj2yI50SKAruTNTbtm0rq2OOH7hjdSgYl7LFmWvs2LGeQ9voaf8YO+yMMqZY51Dv46fP9WqhJwHGSVxDFxyDh90hQ4ffLlTkC7t4Q0d27dqV93dKvQMisD5GvQefCEoJ7u5daHQLiaXwkM+XWEond782TVa7ArxZ76UBeHSAsYyuaOY7W6y7Iyod50XBHZoVa8tvUJfifT9wV0AvF8ijwKS57dOnj5fmlvzxYQCVMqYjJt0t3+k3SGYt2iBUQQvz+1J+N7du+u7duxPrY+SGVY8/hlLv6VD3bN1FucBdpYIVpnkp2HYJs+2WJqtdwd2s99KBuzvvw+qyzUYuE+ZmO9IhgdSCOzHSCuaVbomZJ80tMfP1/a4rGDOvZUy/069Bho2ZJjiklRKkw167lHXTlbJjNQ/17sbup0Pds3UX5QZ3lY4Wc2JhprkqClnzabTaFeDNei8PwAP26nyHzpgvjY6myrWpBHeshhtuuEHGjx/vTS6lAPeoTng4IREzjzX/3XF3dsXMEypGfneod1r+Dgu8pfq+Ljj69h+YeN10BjUWHvu2UO94ZRv1nsyArhS4u3fvZplkXOJY5VptnKfRaldwN+u9fOCuesFiD10hCgYWT7Nsunpl56WXQCrBXZWEfdwZM2ZIXV2drF+/3qvtnjTQRwV5lJY0t6SSHdh4k/QbNMSrXR6HeseqpkTqXXOWSNPG3wr74XEAX2PTr7m2zqubXsiDXWUetFXqnVU6Fh77tnYkK4E0gLs+kVrz5COHgkWX0IE0W+0K8Ga9lx/gmUfUidac73QUlbdNNbgr0EDxkqMckCd7G3s8SYN81OsxwWHFxwFhFgQ33Xqb3DXjB17KXBY1M+/9J2m86RZhbzzstdkKuHXE+K666WEd5FTu+Vomc/WWpV+w7OwojQTSBO7uE+I8Rd8zaR9uOSBYxwqkaWzNeq8MuOv8wRxpznfuCCrPeSbAXZWEFm9uiq4MHTrUA0L2w6MCc77fhbXk44I7wD5y3GRvjyq3yymSMmbC1EAAr7Hp3762r1A3nQWCK7e45+ynQb1jqUO9G9WW21vJ/51WcNcn/fDDD6XlxO5UA7suNsx6ryzA6/xjznc6ekrfZg7cVUnY05k5c6ZnzS9btsyjCPOBdanfiwvuY6feUzCVK44pWPV+1rvGpkO9Uzcdi0plFLfVFTeAjiesUe+lH5Duf0g7uJ/qOC4vn37Cq4JHJbzclwJrudvc++Bv7hPfgLhjwn6fzCLBnO/ckV6a88yCuw4yYqzxrB8wYIC3Pw/oBwH0pMLp4oD7+l2dMvy2kUV7FoqePXgFeI1Nbxw8rCs2XeWRRAv1jmLoXplR70W7qCRfSDO4UwXv3PmzXu166tfrq/OVU9J2tNWjYQHVSgA7FHDbsRY5dry126v9xFHPCEhijNg1kgF5c74rydThXTTz4O4OsqefflomTpwoAwcO9ELXyDoXBOjjfCcOuBez2rXb1XrX2PRvX1snP7hnpueR6j5/3HOsfg1/oqK/+uUAAAqSSURBVJqTUe/aA5Vp0wzufhJJQ037A2d+Km3thyIl44k7huz30UDfnO/8RlT096sK3HVg4ck7Z84cj7KfP3++lz8+CICz317OPfe/+da3AgNoY+P1UldXLw8vW543vas+e9iW+GUsHah3HOUsCUX0wZT0L7ME7l999ZX86c9vyNFTL8pL55eU3WLPZQj2n3tUjrTvl7O/7xm6F3aM2PejAXYUuelWoGW+iz+bVCW4q1KxGly3bl1JY+ajWu44wPWt7x+4B8nZDk2uzxa3hQ5jH51YVLKSGfUeuCvK9sWsgPvnn38uZ87+Tg53/LzioN4N5M8vkebju+V0x8nExk3ccWe/D75QUOc72EQzOsJPO1UN7u5AKlXMfFRw96rCjZ0QuMcee+wxWbVqVexJCup9z549nqX+1ltvBWYOAt+ofTExCWQB3P/nfz+S479rkf1n16QL2P9jcdf9HDr1S2k/2Savvvpq7PHjzil2Hhyo48iKJFm6XcicRc4FO4pLoGbAXZULcEsyZj4quD/68xb5+ynTivfQ19+IA+5Q783NzV6RB6j3Dz74IPD/tS9WTgJpBndo+D++dkmOnnohFTR8N4vdAXZ9/0DnRmlrPywXL140gP9DeUBZ59ykWpdtZN61TJiF56aaA3dX0ZKImY8K7jjHDWxoLNw7zqezZ88WHAbd+y92TqpQqHfofM6tPKMj0AycphXcP/30U+k4c0IOn9nWZR0riKa5JZlN67EDcu7cuVDjqNg4s8/Lu1hQ5zv25a3srP9EVtPgroMyTsx8FHDX2PTevXsHpsVvv/32wN7x7e3tHvVOqlCjsfyVP+2fpBHcP/jvv0r7ycOpz0rnu8g4v0Ra2v9dOjpPGcBn1ILXeZu5VzPfwUxa2dnuM5qBu6PgUWLmg4J7vtj0kSNHyuuvv969R/L8RXW1hoaGvPXSVdGh3ilqw2oWRTfqPY8gM/ZWmsD98uXL8l9/fFVaj+2X/WfW9UhYky9xTLH3XupYKzv3Pxr4Vex6YT5vPrbX9uGduU/nkay2GDTUPDDnu28mOQN3HwUPGjNfDNwLxabzP6Dbix1r1qyR1atX57U0oNthHqDeL1y4YNR7MWFm6PM0gTveymfPdXYlq9GkNXHarVs2yUMP/LMsv//+oq9/mTdPnvnVL+Tg4X3eq+XIQTna3j1JTW7SmuJ/H/HCZLMKaHbfPbcDzPnumwnOwN0H3HXgFIuZ9wN3KrzdMWmG9Os/oGBs+rBhw/Lmldcu8rPaCRN5/vnnBerdaiertKqr/eijj+ThBx+UDTffKk/U1Rd8rRkzVtatWp0pAfzrb34ja0eMLPhc+tyrJkyU48ePe8/nFq7BpwRHKx2v1vYEvFqUiTnfiZdltKmpqcec0EvfIQfw9u3ba37w+MXMu+CeWzc9iAMci4dJkyYJRWJyDxzgJk+e3LXXzj0o9Q645/tN7jXs72xLAOt984YNsmr+/B4gv6W+v6ydMFGWPPigAJRZc5iMCu7ao2RQxKeEBEyEdzImahHI7Jn9FzS17HxnlnsRyz3fwHFj5hcvXix/26ePTJm5QKLWTQfgR48eLYS7qRWinvxQ7vgC0JJwxqh3ndprq3VBfv3w73qgvmzRYtm3d2/mQF17Li6463Vo8TEB3DFECPfUcZRv/Np7/mBYrbLBCKs15zsD9wjgrgOAmPl58+ZJw6BGLxMeq0T9LGzLtUhSg6U+btw4odIdtDtOIrRGvbtTee2eA/K/eOqpTIO69l6S4K7XJPaZksRqzeNoFXYs2verG/xrxfnOwD0GuJdiElDqHQsES8TCO3TatrbaJFAKcHdlhDWvyZvYzoqz+C7FWLdrVnYRUe3OdwbuKQF3FA3qfceOHR71btmX3GnazqtRAqUGd5UZvghsZzG2XnjhBYElM2CtLLCmSf7V6nxn4F5hcGe/XeMzod7tMAnUigTKBe6uPN99911vT558EFjz5IdIE9DYvVRu0eE637EAzJqDqqvnnBu4VwDcVYmg3lEio95z1dL+rgUJVALcVa5qzZMfAsYM5syAtXLAmibZ43yH0aUJwbIalWTgXkZwZwKBFoQeRIGMetep1tpalEAlwV3lTYUxGDOtOoZHtVnzBvK62MD5Dodm9APWJ0uHgXuJwV1Xgc8991wmFSRLymz3mi0JpAHcXYl98sknXiESteYJQdVJ3traBnw1zIjCyEq9DgP3EoE71DvxtlA7UO9kmrPDJGAS+EYCaQN3vTO15jUUFYqWRboBfG0DPP2vzncsANPOvhq4JwzuZPRT6p14W6Pedcq01iTQXQJpBXf3LnNT3VLLwUDeQJ6tm4MHD3YZb2l0vjNwTwDclXqHsiHXddb2ZtzJzM5NAuWSQBbAXWWhqW6p5UB0i1nzBvAs8nTuT6PznYF7DHCHooF6h6KBemfPzg6TgEkgmASyBO7uE6k1z4RuqW4N5JXJSZvznYF7BHAHyKHesdSh3lnV22ESMAmEk0BWwV2fMjfVrRWuMaAH6NPifGfgHhDcoV8IkwHQWa0b9a5TnLUmgWgSyDq4u09thWsM2NWC17bSzncG7kXAnQ5CSFDvHR0dRr27M5qdmwRiSKCawF3F4FrzlurWAB+gr5TznYG7D7hDvWtii9dee82od529rDUJJCSBagR3VzS5qW6tcE1tg325ne8M3B1wZ4WlNX+h3t9//313rNq5ScAkkKAEqh3cVVSa6tYK19Q2uCtdT6vOd+RSKNUWr4G7k5hg586dHvWexphFnSisNQlUiwRqBdzd/lJrHt8dS3VrYE8WRHXOhiEmgVJSR02DO9T7nj17PCc5Ugqa13tSamXXMQkUl0AtgrtKJTfVrRWuqW2gd327KE+cRPKzmgN3qPfm5mYvsxDUO16udpgETALll0Atg7tKW1Pdqn+PWfO1DfLgE6WINW15nNwpNQPupI0kexxe75wb9a7Ti7UmgcpIwMC9u9zVmmd7kLnKUt3WLtCr8x3bNxijUcrOVj2447gA9U7ayKxU8+k+5O0vk0B1SmDf3r3y6D/MlI0DGuSJunrf188GNcryOffJ2bNnq1MQOU9lqW5rF9Rdpzs9j+p8V5Xg7lIbrHqMes+ZPexPk0AKJHDlyhU509EhDzc1yZpZ9wog7oL8T24cLKt/+ENZsXSpXLp0KQV3XP5b0FS3MI5mzdc26Id1vqsqcIfGevHFFz3qHacEo97LPxnZfzQJRJEA4A2IA/KPDx3mgfqPV6702LYo16u237jWPEykpbqtXaAP6nxXFeCOohMvCPX+9ttvJxpOUG2ThD2PSSDNEgDkt27cZKBeoJMs1W3tArtS9bQuQ52vcFlmwZ1sT+pVCLhHcTgoMH7sI5OAScAkkGoJuKluzZqvXcD3c77LHLiz7wD1jkepUe+pnnvs5kwCJoEyScC15jF6LNVtbYK963wHm93U1NRDA3vpO2+88YY8+eSTsnXr1lS8Hn/8cRk1apT07t1bevXqZS+TgemA6YDpwNc60KdPH5k1a5Zs3rw5FfN1WnCjVu+DlMe5Rxe4535gf5sETAImAZOAScAkkE0JGLhns9/srk0CJgGTgEnAJOArAQN3X9HYByYBk4BJwCRgEsimBP4P5lfnxMQmSH8AAAAASUVORK5CYII=;" vertex="1" parent="1">
          <mxGeometry x="162" y="350" width="503" height="332" as="geometry" />
        </mxCell>
      </root>
    </mxGraphModel>
  </diagram>
</mxfile>
